<?xml version="1.0" encoding="UTF-8"?>
<svg version="1.1" xmlns="http://www.w3.org/2000/svg" width="30" height="29">
<path d="M0 0 C3 1 3 1 4 3 C4.13357453 6.67329964 4.1671568 9.49852959 3 13 C4.216875 12.79375 5.43375 12.5875 6.6875 12.375 C10.34806773 11.90036156 12.67611512 12.23418616 16 14 C16 14.99 16 15.98 16 17 C13.47524538 18.26237731 11.68799534 18.09856404 8.875 18.0625 C7.96492188 18.05347656 7.05484375 18.04445313 6.1171875 18.03515625 C5.06917969 18.01775391 5.06917969 18.01775391 4 18 C4.04125 19.258125 4.0825 20.51625 4.125 21.8125 C4.2390374 25.29064073 4.05925681 25.91111478 2 29 C1.01 28.67 0.02 28.34 -1 28 C-2.26237731 25.47524538 -2.09856404 23.68799534 -2.0625 20.875 C-2.05347656 19.96492188 -2.04445313 19.05484375 -2.03515625 18.1171875 C-2.02355469 17.41851563 -2.01195312 16.71984375 -2 16 C-3.5778125 16.309375 -3.5778125 16.309375 -5.1875 16.625 C-8.99624887 16.99963104 -10.66835752 16.71630067 -14 15 C-14 14.01 -14 13.02 -14 12 C-11.47524538 10.73762269 -9.68799534 10.90143596 -6.875 10.9375 C-5.96492187 10.94652344 -5.05484375 10.95554687 -4.1171875 10.96484375 C-3.41851562 10.97644531 -2.71984375 10.98804688 -2 11 C-2.061875 9.1128125 -2.061875 9.1128125 -2.125 7.1875 C-2.2390374 3.70935927 -2.05925681 3.08888522 0 0 Z " fill="#517DB8" transform="translate(14,0)"/>
<path d="M0 0 C3 1 3 1 4 3 C4.13357453 6.67329964 4.1671568 9.49852959 3 13 C4.216875 12.79375 5.43375 12.5875 6.6875 12.375 C10.34806773 11.90036156 12.67611512 12.23418616 16 14 C16 14.99 16 15.98 16 17 C12.5402669 18.72986655 8.78289201 18.48431489 5 18 C1.66399633 15.94161475 0.1737824 14.2606736 -2 11 C-2.265625 9.0625 -2.265625 9.0625 -2.25 7 C-2.25515625 6.319375 -2.2603125 5.63875 -2.265625 4.9375 C-2 3 -2 3 0 0 Z " fill="#709346" transform="translate(14,0)"/>
<path d="M0 0 C-0.33 1.98 -0.66 3.96 -1 6 C-7.75 5.125 -7.75 5.125 -10 4 C-10 3.01 -10 2.02 -10 1 C-6.78548731 -0.60725635 -3.56387464 -0.05748185 0 0 Z " fill="#3F5398" transform="translate(10,11)"/>
<path d="M0 0 C-0.33 2.31 -0.66 4.62 -1 7 C-2.32 7 -3.64 7 -5 7 C-5.33 5.02 -5.66 3.04 -6 1 C-1.125 0 -1.125 0 0 0 Z " fill="#4661A1" transform="translate(18,21)"/>
<path d="M0 0 C1.32 0 2.64 0 4 0 C4.33 1.32 4.66 2.64 5 4 C3.35 4.33 1.7 4.66 0 5 C-0.5625 3.0625 -0.5625 3.0625 -1 1 C-0.67 0.67 -0.34 0.34 0 0 Z " fill="#709348" transform="translate(20,6)"/>
<path d="M0 0 C1.65 0.33 3.3 0.66 5 1 C4.67 2.32 4.34 3.64 4 5 C2.68 5 1.36 5 0 5 C-0.33 4.01 -0.66 3.02 -1 2 C-0.67 1.34 -0.34 0.68 0 0 Z " fill="#4561A1" transform="translate(6,18)"/>
<path d="M0 0 C-0.33 1.32 -0.66 2.64 -1 4 C-2.65 4 -4.3 4 -6 4 C-5.67 3.01 -5.34 2.02 -5 1 C-2 0 -2 0 0 0 Z " fill="#4C71AE" transform="translate(18,18)"/>
<path d="M0 0 C0.99 0.33 1.98 0.66 3 1 C2.67 2.65 2.34 4.3 2 6 C1.01 6 0.02 6 -1 6 C-1.042721 4.33388095 -1.04063832 2.66617115 -1 1 C-0.67 0.67 -0.34 0.34 0 0 Z " fill="#4969A6" transform="translate(7,11)"/>
<path d="M0 0 C0.33 0.66 0.66 1.32 1 2 C0.01 3.485 0.01 3.485 -1 5 C-1.99 4.67 -2.98 4.34 -4 4 C-4.33 3.01 -4.66 2.02 -5 1 C-3.35 0.67 -1.7 0.34 0 0 Z " fill="#3F5197" transform="translate(17,24)"/>
</svg>
