<?xml version="1.0" encoding="UTF-8"?>
<svg version="1.1" xmlns="http://www.w3.org/2000/svg" width="3543" height="1181">
<path d="M0 0 C0.53496094 0.42216797 1.06992188 0.84433594 1.62109375 1.27929688 C21.05686208 16.77664212 37.07734813 35.14558627 49 57 C49.34901367 57.63760254 49.69802734 58.27520508 50.05761719 58.93212891 C57.15865908 72.08378207 62.02761984 85.66834655 65.75 100.125 C65.94875732 100.8871582 66.14751465 101.64931641 66.35229492 102.43457031 C69.66919519 115.96377003 70.37861421 129.39783535 70.3125 143.25 C70.31034485 144.0649292 70.3081897 144.8798584 70.30596924 145.71948242 C70.25514274 157.70278364 69.91811959 169.31965609 67 181 C66.70198486 182.22565674 66.70198486 182.22565674 66.39794922 183.47607422 C60.36437649 207.66911904 50.78979768 231.46242933 35 251 C34.23429687 251.96421875 33.46859375 252.9284375 32.6796875 253.921875 C28.19011413 259.28565573 28.19011413 259.28565573 26 261 C23.5234375 261.109375 23.5234375 261.109375 21 260 C14.78246212 253.7302139 10.07897587 245.79562517 5.5625 238.25 C5.1497583 237.56615234 4.7370166 236.88230469 4.31176758 236.17773438 C1.48310599 231.30624783 -0.40579585 226.39721699 -2 221 C-2.66 221 -3.32 221 -4 221 C-19.50584201 177.04985321 -21.56309853 136.64616826 -4 93 C-3.34 93 -2.68 93 -2 93 C-1.62875 91.8553125 -1.62875 91.8553125 -1.25 90.6875 C-0.56038904 88.65314767 0.15720951 86.62530697 0.98828125 84.64453125 C6.34145918 71.46598049 5.66778994 59.18499105 1 46 C0.04208762 44.63611523 -0.94559396 43.29073843 -2 42 C-2 41.34 -2 40.68 -2 40 C-2.83337891 39.59974609 -2.83337891 39.59974609 -3.68359375 39.19140625 C-7.12054737 37.42366451 -10.36947485 35.36373652 -13.66015625 33.33984375 C-19.79458511 29.82714075 -27.10206458 30.11604197 -33.859375 31.6484375 C-39.08680134 33.3379648 -44.12452667 35.45909817 -49.18603516 37.58276367 C-57.33847443 40.9988594 -65.35095233 44.03347969 -74 46 C-74.65581055 46.14953125 -75.31162109 46.2990625 -75.98730469 46.453125 C-93.38720964 50.21001467 -111.30863095 49.29087833 -129 49 C-129 48.34 -129 47.68 -129 47 C-129.71800781 46.98582031 -130.43601562 46.97164063 -131.17578125 46.95703125 C-140.7737124 46.51478536 -149.54390838 44.34030332 -158.73535156 41.65869141 C-160.73158228 41.07807148 -162.73634142 40.52694665 -164.7421875 39.98046875 C-182.7801807 34.61727923 -199.399782 24.72633752 -214 13 C-215.55074219 11.77990234 -215.55074219 11.77990234 -217.1328125 10.53515625 C-219.43784211 8.70846844 -221.72713259 6.86642524 -224 5 C-223.83203125 3.21875 -223.83203125 3.21875 -223 1 C-220.63671875 -0.78125 -220.63671875 -0.78125 -217.6875 -2.5 C-213.63194554 -4.87348304 -213.63194554 -4.87348304 -210.11352539 -7.94042969 C-159.05664633 -57.69390454 -50.42959511 -40.08347425 0 0 Z " fill="#4968A6" transform="translate(1742,366)"/>
<path d="M0 0 C0.99 0 1.98 0 3 0 C6.35195089 3.35868171 9.13969868 7.21965812 12 11 C12.72703125 11.95261719 13.4540625 12.90523437 14.203125 13.88671875 C38.63351089 47.50046911 50.2348969 90.73588497 43.8125 132 C41.42106643 145.79235223 37.22156527 158.45837502 31 171 C24.98621586 183.4002535 20.61613034 195.27530331 24.0625 209.125 C27.20570716 218.14028963 32.58741106 223.7403666 41.17871094 227.9453125 C52.86523756 232.91985904 65.56516637 230.51557829 77 226 C79.9692891 224.76701875 82.93766811 223.53190043 85.90478516 222.29370117 C98.16325309 217.35430573 112.19905675 213.78875345 125.4375 213.9375 C126.48808594 213.94652344 127.53867188 213.95554687 128.62109375 213.96484375 C129.40613281 213.97644531 130.19117188 213.98804688 131 214 C131 213.34 131 212.68 131 212 C134.96 212 138.92 212 143 212 C143 212.66 143 213.32 143 214 C143.69480469 213.95359375 144.38960937 213.9071875 145.10546875 213.859375 C179.77599442 212.62898879 217.43189546 229.1429559 243 252 C243.52980469 252.55816406 244.05960938 253.11632812 244.60546875 253.69140625 C246.08196071 255.25985722 246.08196071 255.25985722 249 256 C248.69055209 259.14783217 248.4785344 260.58628699 246.0390625 262.6953125 C244.84410156 263.40300781 244.84410156 263.40300781 243.625 264.125 C240.42527341 266.00382138 240.42527341 266.00382138 237.6484375 268.41796875 C216.18501894 289.01674723 174.33882033 296.17494574 146 297 C145.02289062 297.03996094 144.04578125 297.07992188 143.0390625 297.12109375 C109.91822504 297.84481385 68.65256759 290.2990281 42 269 C42 268.34 42 267.68 42 267 C41.27167969 266.73445313 40.54335937 266.46890625 39.79296875 266.1953125 C35.06018938 264.16981532 31.12593311 261.04431883 27 258 C26.23816406 257.44699219 25.47632813 256.89398438 24.69140625 256.32421875 C8.38523328 243.92272801 -6.05838899 227.92502592 -16 210 C-16.78504221 208.63199887 -17.57163515 207.26488702 -18.359375 205.8984375 C-19.19865422 204.43271375 -20.03719423 202.96656648 -20.875 201.5 C-21.28121582 200.79246582 -21.68743164 200.08493164 -22.10595703 199.35595703 C-25 194.23075244 -25 194.23075244 -25 192 C-25.66 192 -26.32 192 -27 192 C-42.04872636 156.70312777 -47.36972281 120.00339105 -40 82 C-39.86609863 81.28408691 -39.73219727 80.56817383 -39.59423828 79.83056641 C-37.02208179 66.47094148 -33.08980655 52.1796131 -27 40 C-26.34 40 -25.68 40 -25 40 C-24.75378906 39.16726562 -24.50757813 38.33453125 -24.25390625 37.4765625 C-22.82725733 33.52105616 -21.00649241 30.02444818 -18.9375 26.375 C-18.54336914 25.67713379 -18.14923828 24.97926758 -17.74316406 24.26025391 C-13.99304639 17.75776993 -9.69338892 11.8621706 -5 6 C-4.48179688 5.31679687 -3.96359375 4.63359375 -3.4296875 3.9296875 C-2.125 2.25 -2.125 2.25 0 0 Z " fill="#709348" transform="translate(1765,146)"/>
<path d="M0 0 C19 0 19 0 23.3125 3.0078125 C24.73242188 4.9765625 24.73242188 4.9765625 26 7.125 C27.03121423 8.60679573 28.06246485 10.08856613 29.09375 11.5703125 C29.82271484 12.69228027 29.82271484 12.69228027 30.56640625 13.83691406 C32.69187443 17.0439386 35.08835943 20.00622429 37.5 23 C38.39572335 24.14359854 39.29024163 25.2881419 40.18359375 26.43359375 C43.2606635 30.35016246 46.41099655 34.20576501 49.5625 38.0625 C54.28965275 43.8499487 58.87839776 49.7181909 63.41015625 55.66015625 C66.88528049 60.17741068 70.50732963 64.57540339 74.11328125 68.98828125 C78.07377441 73.84127991 81.96139517 78.74524536 85.8137207 83.68432617 C90.0791349 89.13722169 94.45307634 94.50011776 98.84960938 99.84765625 C99.37619141 100.49089844 99.90277344 101.13414062 100.4453125 101.796875 C100.91469238 102.36760742 101.38407227 102.93833984 101.86767578 103.52636719 C103 105 103 105 104 107 C104.33 71.69 104.66 36.38 105 0 C112.26 0 119.52 0 127 0 C127 48.51 127 97.02 127 147 C120.73 147 114.46 147 108 147 C100.73241486 139.5926536 100.73241486 139.5926536 98.68359375 136.20703125 C96.2088479 132.27486535 93.47654499 128.67579036 90.5625 125.0625 C89.65650538 123.90837299 88.75157109 122.75341288 87.84765625 121.59765625 C84.23116797 117.00832629 80.53036906 112.48798415 76.83618164 107.96118164 C72.88758877 103.1144637 69.01137874 98.21632716 65.1640625 93.2890625 C61.66223545 88.81563025 58.09177321 84.40142446 54.5 80 C49.04665251 73.31447514 43.68782482 66.56149655 38.37792969 59.76171875 C36.9143154 57.89045002 35.44604415 56.02291423 33.9765625 54.15625 C33.22947021 53.20709717 33.22947021 53.20709717 32.46728516 52.23876953 C31.51664475 51.03125059 30.56581066 49.8238841 29.61474609 48.61669922 C27.37444531 45.76823279 25.17471991 42.89962655 23 40 C22.67 75.31 22.34 110.62 22 147 C14.74 147 7.48 147 0 147 C0 98.49 0 49.98 0 0 Z " fill="#F7F7F7" transform="translate(1647,772)"/>
<path d="M0 0 C19 0 19 0 23.3125 3.0078125 C24.73242188 4.9765625 24.73242188 4.9765625 26 7.125 C27.03121423 8.60679573 28.06246485 10.08856613 29.09375 11.5703125 C29.82271484 12.69228027 29.82271484 12.69228027 30.56640625 13.83691406 C32.69187443 17.0439386 35.08835943 20.00622429 37.5 23 C38.39572335 24.14359854 39.29024163 25.2881419 40.18359375 26.43359375 C43.2606635 30.35016246 46.41099655 34.20576501 49.5625 38.0625 C54.28965275 43.8499487 58.87839776 49.7181909 63.41015625 55.66015625 C66.88528049 60.17741068 70.50732963 64.57540339 74.11328125 68.98828125 C78.07377441 73.84127991 81.96139517 78.74524536 85.8137207 83.68432617 C90.0791349 89.13722169 94.45307634 94.50011776 98.84960938 99.84765625 C99.37619141 100.49089844 99.90277344 101.13414062 100.4453125 101.796875 C100.91469238 102.36760742 101.38407227 102.93833984 101.86767578 103.52636719 C103 105 103 105 104 107 C104.33 71.69 104.66 36.38 105 0 C112.26 0 119.52 0 127 0 C127 48.51 127 97.02 127 147 C120.73 147 114.46 147 108 147 C100.73241486 139.5926536 100.73241486 139.5926536 98.68359375 136.20703125 C96.2088479 132.27486535 93.47654499 128.67579036 90.5625 125.0625 C89.65650538 123.90837299 88.75157109 122.75341288 87.84765625 121.59765625 C84.23116797 117.00832629 80.53036906 112.48798415 76.83618164 107.96118164 C72.88758877 103.1144637 69.01137874 98.21632716 65.1640625 93.2890625 C61.66223545 88.81563025 58.09177321 84.40142446 54.5 80 C49.04665251 73.31447514 43.68782482 66.56149655 38.37792969 59.76171875 C36.9143154 57.89045002 35.44604415 56.02291423 33.9765625 54.15625 C33.22947021 53.20709717 33.22947021 53.20709717 32.46728516 52.23876953 C31.51664475 51.03125059 30.56581066 49.8238841 29.61474609 48.61669922 C27.37444531 45.76823279 25.17471991 42.89962655 23 40 C22.67 75.31 22.34 110.62 22 147 C14.74 147 7.48 147 0 147 C0 98.49 0 49.98 0 0 Z " fill="#F7F7F7" transform="translate(1142,772)"/>
<path d="M0 0 C14.2928703 12.43415623 23.66258274 29.68085234 25.22119141 48.69897461 C26.08995994 69.4921176 23.01576647 89.88708865 8.86816406 106.078125 C6.65440782 108.47170171 4.3516483 110.74099239 2 113 C1.41734375 113.59039063 0.8346875 114.18078125 0.234375 114.7890625 C-8.23420192 122.78716292 -19.86954698 128.07902476 -31 131 C-31.80953125 131.22429687 -32.6190625 131.44859375 -33.453125 131.6796875 C-54.20146741 136.44267176 -77.56496757 132.74569383 -95.6875 121.75 C-101.26981866 118.00675425 -106.21059128 113.70464043 -111 109 C-111.55300781 108.45988281 -112.10601563 107.91976562 -112.67578125 107.36328125 C-127.81820272 91.15966583 -130.8603478 70.13252649 -130.17480469 48.85693359 C-129.22763617 33.37681352 -122.27665064 18.48566836 -112 7 C-111.34515625 6.25234375 -110.6903125 5.5046875 -110.015625 4.734375 C-82.18687661 -25.12566889 -30.50029304 -26.00800182 0 0 Z M-95 18 C-99.40962295 23.54612371 -103.32812496 29.41927074 -106 36 C-106.2990625 36.72703125 -106.598125 37.4540625 -106.90625 38.203125 C-111.92388046 52.97725913 -110.08439418 70.08854731 -103.609375 83.984375 C-96.6152066 97.60459767 -85.56055935 106.937164 -71 112 C-55.31015918 116.40092513 -38.66027328 115.11280479 -24.1875 107.6875 C-11.09971826 100.19318689 -1.57347661 88.73988482 2.56420898 73.98852539 C6.65224904 57.29281711 4.31038177 40.75344737 -4.19140625 25.90625 C-11.78742063 13.70012754 -24.30191412 5.30459248 -38.25 1.88671875 C-57.91698737 -2.2485381 -81.21469676 2.57285165 -95 18 Z " fill="#FBFBFB" transform="translate(2182,788)"/>
<path d="M0 0 C7.26 0 14.52 0 22 0 C22 20.79 22 41.58 22 63 C49.39 63 76.78 63 105 63 C105 42.21 105 21.42 105 0 C112.26 0 119.52 0 127 0 C127 48.51 127 97.02 127 147 C119.74 147 112.48 147 105 147 C105 125.55 105 104.1 105 82 C77.61 82 50.22 82 22 82 C22 103.45 22 124.9 22 147 C14.74 147 7.48 147 0 147 C0 98.49 0 49.98 0 0 Z " fill="#F6F7F6" transform="translate(1887,772)"/>
<path d="M0 0 C89.62061037 0 89.62061037 0 106.7421875 16.4609375 C116.45555017 27.38426922 119.66431949 40.13846399 119.28125 54.51953125 C118.17234805 68.24219286 113.53850855 79.53108967 103.41015625 89 C85.98150919 103.46266984 64.63481162 103.30423649 43.1875 103.125 C32.6996875 103.063125 32.6996875 103.063125 22 103 C22 117.52 22 132.04 22 147 C14.74 147 7.48 147 0 147 C0 98.49 0 49.98 0 0 Z M22 19 C22 40.45 22 61.9 22 84 C28.64125 84.061875 35.2825 84.12375 42.125 84.1875 C44.19023926 84.21481201 46.25547852 84.24212402 48.38330078 84.27026367 C62.67248167 84.38048278 77.74749285 84.2747471 88.99609375 74.21484375 C96.16650724 66.71646956 97.48781208 59.09566158 97.42431641 48.95751953 C97.11758867 40.22710126 94.37230057 33.08908721 88 27 C78.61178288 20.36186668 68.14642395 18.52220484 56.86328125 18.70703125 C55.52348206 18.71156311 55.52348206 18.71156311 54.15661621 18.71618652 C50.87512366 18.73167777 47.59379806 18.77355864 44.3125 18.8125 C36.949375 18.874375 29.58625 18.93625 22 19 Z " fill="#F7F8F7" transform="translate(549,772)"/>
<path d="M0 0 C89.62061037 0 89.62061037 0 106.7421875 16.4609375 C116.45555017 27.38426922 119.66431949 40.13846399 119.28125 54.51953125 C118.17234805 68.24219286 113.53850855 79.53108967 103.41015625 89 C85.98150919 103.46266984 64.63481162 103.30423649 43.1875 103.125 C32.6996875 103.063125 32.6996875 103.063125 22 103 C22 117.52 22 132.04 22 147 C14.74 147 7.48 147 0 147 C0 98.49 0 49.98 0 0 Z M22 18 C22 39.78 22 61.56 22 84 C29.363125 84.061875 36.72625 84.12375 44.3125 84.1875 C46.61387939 84.21481201 48.91525879 84.24212402 51.28637695 84.27026367 C53.14533974 84.27903945 55.00430838 84.28668079 56.86328125 84.29296875 C57.80022827 84.30831665 58.73717529 84.32366455 59.70251465 84.33947754 C70.45595111 84.34365796 81.6468995 81.81093219 89.78515625 74.3671875 C96.56581269 66.93678757 98.33691348 58.46381916 98.21875 48.65625 C97.4787929 39.67105668 93.90548925 32.64787043 87.5 26.375 C78.45260058 18.71690162 66.3637613 17.83763023 55.0078125 17.90234375 C53.74892212 17.90385437 53.74892212 17.90385437 52.46459961 17.90539551 C49.35138569 17.91059873 46.23819137 17.92455986 43.125 17.9375 C32.668125 17.9684375 32.668125 17.9684375 22 18 Z " fill="#F9F9F9" transform="translate(2383,772)"/>
<path d="M0 0 C3.26025882 2.71073449 6.29289034 5.60845806 9.24169922 8.65722656 C7.65502344 12.56008423 5.1081944 14.99243638 2.11669922 17.90722656 C1.20662109 18.79925781 0.29654297 19.69128906 -0.64111328 20.61035156 C-1.68912109 21.62355469 -1.68912109 21.62355469 -2.75830078 22.65722656 C-5.89291486 21.21430897 -8.45389258 19.43005641 -11.19580078 17.34472656 C-25.25491133 7.43522133 -42.04717267 5.02666516 -58.75830078 7.65722656 C-72.36791349 10.5427371 -84.67317811 17.13635409 -92.75830078 28.65722656 C-102.19035024 44.18120334 -104.98848883 60.33601844 -100.86767578 78.02441406 C-96.21019036 93.27603887 -87.98765288 103.23549507 -74.23095703 111.10253906 C-57.80761146 119.35125699 -40.10589165 118.99723616 -22.84423828 113.79003906 C-19.67569467 112.6269028 -16.7635913 111.18731621 -13.75830078 109.65722656 C-13.74799332 109.05809952 -13.73768585 108.45897247 -13.72706604 107.84169006 C-13.61923113 101.62912568 -13.50461534 95.41671316 -13.38598633 89.2043457 C-13.34256339 86.88308883 -13.30089394 84.56179849 -13.26098633 82.24047852 C-13.20346138 78.91184378 -13.13971653 75.58337871 -13.07470703 72.25488281 C-13.05799454 71.21010269 -13.04128204 70.16532257 -13.02406311 69.08888245 C-13.00411789 68.12796188 -12.98417267 67.16704132 -12.96362305 66.17700195 C-12.94807877 65.32650772 -12.93253448 64.47601349 -12.91651917 63.5997467 C-12.75830078 61.65722656 -12.75830078 61.65722656 -11.75830078 60.65722656 C-10.26958219 60.57053224 -8.77685579 60.55019163 -7.28564453 60.55957031 C-6.38652344 60.56279297 -5.48740234 60.56601562 -4.56103516 60.56933594 C-3.14274414 60.5819043 -3.14274414 60.5819043 -1.69580078 60.59472656 C-0.27170898 60.60149414 -0.27170898 60.60149414 1.18115234 60.60839844 C3.53472987 60.62022546 5.88818399 60.63670631 8.24169922 60.65722656 C8.56745214 68.19286146 8.81549231 75.72776067 8.96706963 83.26885128 C9.03987098 86.77202956 9.13836047 90.27036381 9.29785156 93.77075195 C10.29766647 116.29677622 10.29766647 116.29677622 6.94122314 121.78283691 C3.31665975 125.46110261 -0.88570945 127.04497208 -5.75830078 128.65722656 C-7.07019141 129.23255992 -8.37482374 129.82474846 -9.67138672 130.43383789 C-31.28729101 140.4140442 -56.26308532 140.28690158 -78.44580078 132.40722656 C-89.08309763 128.06968804 -97.59977515 121.67135351 -105.75830078 113.65722656 C-106.31130859 113.11710938 -106.86431641 112.57699219 -107.43408203 112.02050781 C-122.87047069 95.50232372 -125.57582837 74.28668256 -124.92871094 52.67041016 C-123.90753558 34.6140401 -114.46099465 18.90826909 -101.75830078 6.65722656 C-101.12537109 5.99335937 -100.49244141 5.32949219 -99.84033203 4.64550781 C-75.48339099 -19.28128857 -26.674165 -20.37043981 0 0 Z " fill="#F8F8F8" transform="translate(1432.75830078125,783.3427734375)"/>
<path d="M0 0 C7.26 0 14.52 0 22 0 C26.92296814 10.52014121 31.79802671 21.06050574 36.625 31.625 C36.97170746 32.38344208 37.31841492 33.14188416 37.67562866 33.92330933 C42.78127556 45.09563014 47.83946806 56.28789514 52.84960938 67.50341797 C57.32411066 77.51368047 61.84657322 87.50186487 66.37347412 97.48852539 C72.19149122 110.32589997 78.00298798 123.16531941 83.6875 136.0625 C84.13883301 137.0844043 84.59016602 138.10630859 85.05517578 139.15917969 C85.45333496 140.06700195 85.85149414 140.97482422 86.26171875 141.91015625 C86.60162842 142.68496338 86.94153809 143.45977051 87.29174805 144.25805664 C88 146 88 146 88 147 C80.41 147 72.82 147 65 147 C62.86034718 142.19596998 60.7229572 137.39106458 58.59130859 132.58349609 C57.86509712 130.94748948 57.13756243 129.31206957 56.40869141 127.67724609 C55.36274391 125.33062376 54.32153493 122.98194957 53.28125 120.6328125 C52.78908997 119.53273361 52.78908997 119.53273361 52.2869873 118.41043091 C50 113.22774341 50 113.22774341 50 111 C24.26 111 -1.48 111 -28 111 C-28.99 113.97 -29.98 116.94 -31 120 C-31.93788421 122.27635786 -32.90900542 124.53939916 -33.91796875 126.78515625 C-34.71557617 128.56889648 -34.71557617 128.56889648 -35.52929688 130.38867188 C-36.08193752 131.61332355 -36.63467302 132.83793243 -37.1875 134.0625 C-37.75234508 135.32208993 -38.31680111 136.5818544 -38.88085938 137.84179688 C-40.25009389 140.8962431 -41.6245228 143.94835989 -43 147 C-50.26 147 -57.52 147 -65 147 C-62.96763044 140.90289133 -60.88147506 135.19275598 -58.2265625 129.390625 C-57.86682343 128.59481018 -57.50708435 127.79899536 -57.13644409 126.97906494 C-55.96998497 124.400866 -54.79748529 121.82546321 -53.625 119.25 C-52.80486031 117.4396697 -51.98520407 115.62912032 -51.16601562 113.81835938 C-49.53068062 110.2043005 -47.89350213 106.59108649 -46.25488281 102.97851562 C-43.31587908 96.49492138 -40.40609202 89.9984101 -37.5 83.5 C-31.96305146 71.13538933 -26.4034191 58.78104391 -20.84185791 46.42749023 C-13.87821577 30.95897206 -6.93277284 15.48237609 0 0 Z M10 23 C9.69521729 23.70455322 9.39043457 24.40910645 9.07641602 25.13500977 C7.85579211 27.95594215 6.63477025 30.77670187 5.41342163 33.59732056 C4.84647185 34.90667504 4.27959758 36.21606221 3.71279907 37.52548218 C-0.05881428 46.23731616 -3.84549516 54.94241883 -7.6484375 63.640625 C-8.43042566 65.43025465 -9.21240811 67.2198868 -9.99438477 69.00952148 C-11.15341848 71.66187698 -12.31312584 74.31392828 -13.474823 76.96511841 C-14.56421461 79.45132171 -15.65144095 81.93846183 -16.73828125 84.42578125 C-17.06891571 85.17857361 -17.39955017 85.93136597 -17.74020386 86.70697021 C-19.30979559 89.74750183 -19.30979559 89.74750183 -20 93 C0.46 93 20.92 93 42 93 C36.39631392 79.34161599 36.39631392 79.34161599 30.5546875 65.79296875 C30.17692169 64.9354451 29.79915588 64.07792145 29.40994263 63.19441223 C28.23355652 60.52458587 27.05452621 57.85594035 25.875 55.1875 C24.30838296 51.63998846 22.74313664 48.09187761 21.1796875 44.54296875 C20.81115662 43.70643768 20.44262573 42.86990662 20.06292725 42.00802612 C17.29339506 35.70495558 14.60178296 29.37444951 12 23 C11.34 23 10.68 23 10 23 Z " fill="#F8F8F8" transform="translate(741,772)"/>
<path d="M0 0 C7.26 0 14.52 0 22 0 C26.92296814 10.52014121 31.79802671 21.06050574 36.625 31.625 C36.97170746 32.38344208 37.31841492 33.14188416 37.67562866 33.92330933 C42.78127556 45.09563014 47.83946806 56.28789514 52.84960938 67.50341797 C57.32411066 77.51368047 61.84657322 87.50186487 66.37347412 97.48852539 C72.19149122 110.32589997 78.00298798 123.16531941 83.6875 136.0625 C84.13883301 137.0844043 84.59016602 138.10630859 85.05517578 139.15917969 C85.45333496 140.06700195 85.85149414 140.97482422 86.26171875 141.91015625 C86.60162842 142.68496338 86.94153809 143.45977051 87.29174805 144.25805664 C88 146 88 146 88 147 C80.41 147 72.82 147 65 147 C62.86034718 142.19596998 60.7229572 137.39106458 58.59130859 132.58349609 C57.86509712 130.94748948 57.13756243 129.31206957 56.40869141 127.67724609 C55.36274391 125.33062376 54.32153493 122.98194957 53.28125 120.6328125 C52.78908997 119.53273361 52.78908997 119.53273361 52.2869873 118.41043091 C50 113.22774341 50 113.22774341 50 111 C24.26 111 -1.48 111 -28 111 C-28.99 113.97 -29.98 116.94 -31 120 C-31.93788421 122.27635786 -32.90900542 124.53939916 -33.91796875 126.78515625 C-34.71557617 128.56889648 -34.71557617 128.56889648 -35.52929688 130.38867188 C-36.08193752 131.61332355 -36.63467302 132.83793243 -37.1875 134.0625 C-37.75234508 135.32208993 -38.31680111 136.5818544 -38.88085938 137.84179688 C-40.25009389 140.8962431 -41.6245228 143.94835989 -43 147 C-50.26 147 -57.52 147 -65 147 C-62.96763044 140.90289133 -60.88147506 135.19275598 -58.2265625 129.390625 C-57.86682343 128.59481018 -57.50708435 127.79899536 -57.13644409 126.97906494 C-55.96998497 124.400866 -54.79748529 121.82546321 -53.625 119.25 C-52.80486031 117.4396697 -51.98520407 115.62912032 -51.16601562 113.81835938 C-49.53068062 110.2043005 -47.89350213 106.59108649 -46.25488281 102.97851562 C-43.31587908 96.49492138 -40.40609202 89.9984101 -37.5 83.5 C-31.96305146 71.13538933 -26.4034191 58.78104391 -20.84185791 46.42749023 C-13.87821577 30.95897206 -6.93277284 15.48237609 0 0 Z M10 23 C4.70433984 35.13791659 -0.58754717 47.27747285 -5.87561035 59.41870117 C-6.94382872 61.87104572 -8.01241093 64.32323143 -9.08105469 66.77539062 C-10.62682463 70.32298652 -12.17064618 73.87142359 -13.71279907 77.42059326 C-14.27903355 78.72299559 -14.84590734 80.02512016 -15.41342163 81.32696533 C-16.19529268 83.12087861 -16.97467352 84.91587663 -17.75390625 86.7109375 C-18.19033447 87.71431152 -18.6267627 88.71768555 -19.07641602 89.75146484 C-20.06332441 91.74903032 -20.06332441 91.74903032 -20 93 C0.46 93 20.92 93 42 93 C36.39631392 79.34161599 36.39631392 79.34161599 30.5546875 65.79296875 C30.17692169 64.9354451 29.79915588 64.07792145 29.40994263 63.19441223 C28.23355652 60.52458587 27.05452621 57.85594035 25.875 55.1875 C24.30838296 51.63998846 22.74313664 48.09187761 21.1796875 44.54296875 C20.81115662 43.70643768 20.44262573 42.86990662 20.06292725 42.00802612 C17.29339506 35.70495558 14.60178296 29.37444951 12 23 C11.34 23 10.68 23 10 23 Z " fill="#F8F9F8" transform="translate(1026,772)"/>
<path d="M0 0 C7.26 0 14.52 0 22 0 C26.92296814 10.52014121 31.79802671 21.06050574 36.625 31.625 C36.97170746 32.38344208 37.31841492 33.14188416 37.67562866 33.92330933 C42.78127556 45.09563014 47.83946806 56.28789514 52.84960938 67.50341797 C57.32411066 77.51368047 61.84657322 87.50186487 66.37347412 97.48852539 C72.19149122 110.32589997 78.00298798 123.16531941 83.6875 136.0625 C84.13883301 137.0844043 84.59016602 138.10630859 85.05517578 139.15917969 C85.45333496 140.06700195 85.85149414 140.97482422 86.26171875 141.91015625 C86.60162842 142.68496338 86.94153809 143.45977051 87.29174805 144.25805664 C88 146 88 146 88 147 C80.41 147 72.82 147 65 147 C62.86034718 142.19596998 60.7229572 137.39106458 58.59130859 132.58349609 C57.86509712 130.94748948 57.13756243 129.31206957 56.40869141 127.67724609 C55.36274391 125.33062376 54.32153493 122.98194957 53.28125 120.6328125 C52.78908997 119.53273361 52.78908997 119.53273361 52.2869873 118.41043091 C50 113.22774341 50 113.22774341 50 111 C24.26 111 -1.48 111 -28 111 C-28.99 113.97 -29.98 116.94 -31 120 C-31.93788421 122.27635786 -32.90900542 124.53939916 -33.91796875 126.78515625 C-34.71557617 128.56889648 -34.71557617 128.56889648 -35.52929688 130.38867188 C-36.08193752 131.61332355 -36.63467302 132.83793243 -37.1875 134.0625 C-37.75234508 135.32208993 -38.31680111 136.5818544 -38.88085938 137.84179688 C-40.25009389 140.8962431 -41.6245228 143.94835989 -43 147 C-50.26 147 -57.52 147 -65 147 C-62.96763044 140.90289133 -60.88147506 135.19275598 -58.2265625 129.390625 C-57.86682343 128.59481018 -57.50708435 127.79899536 -57.13644409 126.97906494 C-55.96998497 124.400866 -54.79748529 121.82546321 -53.625 119.25 C-52.80486031 117.4396697 -51.98520407 115.62912032 -51.16601562 113.81835938 C-49.53068062 110.2043005 -47.89350213 106.59108649 -46.25488281 102.97851562 C-43.31587908 96.49492138 -40.40609202 89.9984101 -37.5 83.5 C-31.96305146 71.13538933 -26.4034191 58.78104391 -20.84185791 46.42749023 C-13.87821577 30.95897206 -6.93277284 15.48237609 0 0 Z M10 23 C2.86161342 38.79200563 -4.19641103 54.61965077 -11.15628052 70.49118042 C-11.92721302 72.24733239 -12.70006203 74.00264427 -13.474823 75.7571106 C-14.56802547 78.2341901 -15.65406054 80.71429104 -16.73828125 83.1953125 C-17.06891571 83.94095963 -17.39955017 84.68660675 -17.74020386 85.45484924 C-19.04760112 88.46466517 -20 90.68167712 -20 94 C0.46 94 20.92 94 42 94 C41.31893773 90.59468867 40.84466393 88.30582011 39.51635742 85.28076172 C39.0634433 84.23949883 39.0634433 84.23949883 38.60137939 83.17720032 C38.27272888 82.43552109 37.94407837 81.69384186 37.60546875 80.9296875 C37.26159119 80.14317307 36.91771362 79.35665863 36.56341553 78.54631042 C35.44293902 75.98705806 34.31535347 73.43100885 33.1875 70.875 C32.41637879 69.11791917 31.64562881 67.36067537 30.87524414 65.60327148 C24.6338799 51.37999493 18.3419738 37.17869517 12 23 C11.34 23 10.68 23 10 23 Z " fill="#F9FAF9" transform="translate(1531,772)"/>
<path d="M0 0 C7.26 0 14.52 0 22 0 C26.92296814 10.52014121 31.79802671 21.06050574 36.625 31.625 C36.97170746 32.38344208 37.31841492 33.14188416 37.67562866 33.92330933 C42.78127556 45.09563014 47.83946806 56.28789514 52.84960938 67.50341797 C57.32411066 77.51368047 61.84657322 87.50186487 66.37347412 97.48852539 C72.19149122 110.32589997 78.00298798 123.16531941 83.6875 136.0625 C84.13883301 137.0844043 84.59016602 138.10630859 85.05517578 139.15917969 C85.45333496 140.06700195 85.85149414 140.97482422 86.26171875 141.91015625 C86.60162842 142.68496338 86.94153809 143.45977051 87.29174805 144.25805664 C88 146 88 146 88 147 C80.41 147 72.82 147 65 147 C62.86034718 142.19596998 60.7229572 137.39106458 58.59130859 132.58349609 C57.86509712 130.94748948 57.13756243 129.31206957 56.40869141 127.67724609 C55.36274391 125.33062376 54.32153493 122.98194957 53.28125 120.6328125 C52.78908997 119.53273361 52.78908997 119.53273361 52.2869873 118.41043091 C50 113.22774341 50 113.22774341 50 111 C24.26 111 -1.48 111 -28 111 C-28.99 113.97 -29.98 116.94 -31 120 C-31.93788421 122.27635786 -32.90900542 124.53939916 -33.91796875 126.78515625 C-34.71557617 128.56889648 -34.71557617 128.56889648 -35.52929688 130.38867188 C-36.08193752 131.61332355 -36.63467302 132.83793243 -37.1875 134.0625 C-37.75234508 135.32208993 -38.31680111 136.5818544 -38.88085938 137.84179688 C-40.25009389 140.8962431 -41.6245228 143.94835989 -43 147 C-50.26 147 -57.52 147 -65 147 C-62.96763044 140.90289133 -60.88147506 135.19275598 -58.2265625 129.390625 C-57.86682343 128.59481018 -57.50708435 127.79899536 -57.13644409 126.97906494 C-55.96998497 124.400866 -54.79748529 121.82546321 -53.625 119.25 C-52.80486031 117.4396697 -51.98520407 115.62912032 -51.16601562 113.81835938 C-49.53068062 110.2043005 -47.89350213 106.59108649 -46.25488281 102.97851562 C-43.31587908 96.49492138 -40.40609202 89.9984101 -37.5 83.5 C-31.96305146 71.13538933 -26.4034191 58.78104391 -20.84185791 46.42749023 C-13.87821577 30.95897206 -6.93277284 15.48237609 0 0 Z M10 23 C2.72674124 38.5290172 -4.15450741 54.20184838 -10.87133789 69.9777832 C-11.33403328 71.06433449 -11.33403328 71.06433449 -11.80607605 72.1728363 C-12.40344162 73.57674619 -12.99999308 74.9810028 -13.59565735 76.38563538 C-15.1593301 80.06491685 -16.77207146 83.71525993 -18.44140625 87.34765625 C-20.19624708 90.79804416 -20.19624708 90.79804416 -20 94 C0.46 94 20.92 94 42 94 C41.17680917 89.88404583 40.24095776 86.92584706 38.5859375 83.14453125 C38.07901367 81.98018555 37.57208984 80.81583984 37.04980469 79.61621094 C36.49168124 78.34824356 35.93340912 77.0803416 35.375 75.8125 C34.80073789 74.49918467 34.22685182 73.18570486 33.65332031 71.87207031 C32.10570258 68.33186292 30.55112698 64.79475549 28.9942627 61.25860596 C27.97282059 58.93825818 26.95260216 56.61737536 25.93261719 54.29638672 C22.60259015 46.72059701 19.26716279 39.14718932 15.921875 31.578125 C15.64016449 30.93991318 15.35845398 30.30170135 15.06820679 29.64414978 C14.07978826 27.41009922 13.09269113 25.18538226 12 23 C11.34 23 10.68 23 10 23 Z " fill="#F9FAF9" transform="translate(2777,772)"/>
<path d="M0 0 C-1.86763181 5.72210596 -3.85289032 11.37661751 -6 17 C-9.58587887 16.42751758 -12.22629062 15.47176865 -15.375 13.6875 C-25.97577545 8.34831002 -36.0783351 6.6425549 -47.8125 6.5625 C-48.76664795 6.5524292 -49.7207959 6.5423584 -50.70385742 6.53198242 C-59.5931193 6.64066064 -67.96308961 8.27228224 -75 14 C-80.08329188 19.2490514 -81.31508471 23.33467221 -81.2109375 30.5 C-80.79980812 35.37264448 -78.86396113 38.09173317 -75.5625 41.5625 C-67.35788163 47.84455107 -56.55452131 50.09573187 -46.70098877 52.45294189 C-8.29121492 61.69648352 -8.29121492 61.69648352 2 77 C6.88091394 85.98203689 7.53651362 96.1806418 5.3046875 106.0859375 C1.52388539 117.42834383 -4.67822848 124.95476809 -15 131 C-35.82089938 141.07792918 -61.57746302 140.55096999 -83.26416016 133.23632812 C-91.92726006 130.01877065 -99.73132922 125.74854012 -107 120 C-105.3341708 113.83643195 -102.12194714 108.51740344 -99 103 C-95.9924543 104.42656202 -93.17563349 106.09536276 -90.32983398 107.81811523 C-77.71740771 115.36048204 -65.40258854 118.18194128 -50.8125 118.25 C-49.72646484 118.270625 -48.64042969 118.29125 -47.52148438 118.3125 C-37.65637661 118.35989992 -27.6404353 116.77780551 -20 110 C-16.53990698 105.53315675 -15.30454977 100.83989959 -15.6328125 95.23046875 C-16.44621246 90.28949663 -17.97856407 86.55796694 -22.02636719 83.43823242 C-28.43587454 79.53778721 -34.62449388 77.33134264 -41.875 75.5 C-44.08111038 74.91158367 -46.28683496 74.32171911 -48.4921875 73.73046875 C-49.58370117 73.44220215 -50.67521484 73.15393555 -51.79980469 72.85693359 C-56.55581546 71.58339089 -61.2805972 70.21485748 -66 68.8125 C-66.78101074 68.58691406 -67.56202148 68.36132812 -68.36669922 68.12890625 C-76.16596434 65.80851948 -83.38925736 62.80781283 -90 58 C-90.825 57.443125 -91.65 56.88625 -92.5 56.3125 C-99.02873634 50.27341888 -102.82128533 42.92391534 -103.3359375 33.984375 C-103.59197174 22.03051402 -101.95943219 12.51751622 -94.046875 3.06640625 C-71.30871618 -19.88871973 -25.12855952 -18.84641964 0 0 Z " fill="#F8F8F8" transform="translate(2340,783)"/>
<path d="M0 0 C40.26 0 80.52 0 122 0 C122 5.94 122 11.88 122 18 C121.505 18.495 121.505 18.495 121 19 C104.83 19 88.66 19 72 19 C72 61.24 72 103.48 72 147 C64.74 147 57.48 147 50 147 C50 104.76 50 62.52 50 19 C33.83 19 17.66 19 1 19 C0.67 18.67 0.34 18.34 0 18 C0 12.06 0 6.12 0 0 Z " fill="#F5F6F5" transform="translate(2589,772)"/>
<path d="M0 0 C7.62868102 -0.99197653 15.43693325 -1.7631347 23 0 C27.50996879 3.56230446 29.22145179 7.83971827 31.54638672 13.00634766 C34.33273371 18.7447062 37.75115851 24.13491872 41.04919434 29.5899353 C42.72917866 32.379344 44.38537597 35.18253368 46.04190063 37.98591614 C51.41844704 47.0805488 56.93248947 56.0832573 62.53125 65.04296875 C62.96308594 65.73567871 63.39492188 66.42838867 63.83984375 67.14208984 C64.83712704 68.73917019 65.83990579 70.3328166 66.84375 71.92578125 C68 74 68 74 68 76 C68.66 76 69.32 76 70 76 C70.25797363 75.29689697 70.51594727 74.59379395 70.78173828 73.86938477 C72.11003303 70.74083803 73.71509639 67.98717537 75.4921875 65.08984375 C75.83401566 64.52988708 76.17584381 63.96993042 76.5280304 63.39300537 C77.64029952 61.57240675 78.75768626 59.75500615 79.875 57.9375 C81.04246366 56.02882759 82.20855788 54.11932288 83.37461853 52.20979309 C84.15336081 50.93477284 84.9325457 49.66002282 85.71217346 48.38554382 C88.42165731 43.95509007 91.11013881 39.51276145 93.76953125 35.05200195 C94.71297039 33.47879119 95.66740133 31.91211888 96.6328125 30.35229492 C99.37932137 25.88690457 101.8082274 21.38989046 104.07421875 16.66015625 C111.87431199 1.13025143 111.87431199 1.13025143 117.76953125 -1.00146484 C124.26941695 -1.96780648 130.59016178 -1.30164468 137 0 C131.4568607 9.77047816 125.80471966 19.47030394 120.0625 29.125 C119.45230011 30.15231232 119.45230011 30.15231232 118.82977295 31.20037842 C113.68276093 39.86397009 108.50588458 48.50843704 103.25756836 57.11108398 C101.82980428 59.45426596 100.42232404 61.80798726 99.02954102 64.17211914 C95.98179392 69.31690148 92.92420578 74.23838266 89.0859375 78.83984375 C74.25047033 97.71312268 78.47922696 124.30795505 79 147 C72.07 147 65.14 147 58 147 C58.12503906 143.65488281 58.25007812 140.30976562 58.37890625 136.86328125 C59.0343553 110.61961085 58.46392185 91.0024127 42.18457031 69.87841797 C38.99521409 65.67608114 36.33253652 61.20816241 33.625 56.6875 C32.59456729 55.03383374 31.56193735 53.381535 30.52734375 51.73046875 C25.14738155 43.05387578 19.98699267 34.24312737 14.79736328 25.4519043 C14.02520447 24.14493719 13.25290848 22.83805111 12.48046875 21.53125 C12.10770813 20.90019852 11.73494751 20.26914703 11.35089111 19.61897278 C8.11867442 14.1638468 4.78812778 8.77297196 1.42700195 3.39648438 C0 1 0 1 0 0 Z " fill="#F9F9F9" transform="translate(827,772)"/>
<path d="M0 0 C7.55065596 7.08069812 12.20223218 15.07841449 13.12109375 25.45703125 C13.39820597 36.17689879 10.97363741 45.48013098 3.91015625 53.73828125 C-5.4736328 63.1220703 -17.49032381 68.18818239 -30.7421875 68.390625 C-41.45895576 68.23804321 -51.40853701 64.34136772 -59.1171875 56.765625 C-66.22133365 48.63023183 -69.87628503 39.36826046 -69.4609375 28.5 C-68.18544919 18.35407024 -65.19366994 10.20332 -58.1171875 2.765625 C-57.70210937 2.26675781 -57.28703125 1.76789063 -56.859375 1.25390625 C-54.16069618 -1.05146736 -51.00488644 -2.3914509 -47.8046875 -3.859375 C-47.15306641 -4.17132813 -46.50144531 -4.48328125 -45.83007812 -4.8046875 C-31.14663037 -11.6246272 -12.64203426 -10.13410034 0 0 Z " fill="#4662A2" transform="translate(1684.1171875,454.234375)"/>
<path d="M0 0 C7.26 0 14.52 0 22 0 C22 42.24 22 84.48 22 128 C48.07 128 74.14 128 101 128 C101 134.27 101 140.54 101 147 C67.67 147 34.34 147 0 147 C0 98.49 0 49.98 0 0 Z " fill="#F6F7F6" transform="translate(2893,772)"/>
<path d="M0 0 C0.70511719 0.36222656 1.41023438 0.72445313 2.13671875 1.09765625 C11.48164934 6.34861725 16.37991165 14.44977912 20.25 24.125 C22.39941631 35.23031762 21.53717658 45.48162383 15.64453125 55.24609375 C9.96834284 63.29623763 1.91896118 70.16187083 -8 72 C-22.60777257 72.99339368 -33.43503519 70.56952561 -45 61 C-49 56.71428571 -49 56.71428571 -49 54 C-49.99 53.67 -50.98 53.34 -52 53 C-57.57579761 42.75206853 -57.92651276 31.72442284 -54.984375 20.69140625 C-53.94323759 17.84480437 -52.74514234 15.47828203 -51 13 C-50.34 13 -49.68 13 -49 13 C-48.731875 12.41089844 -48.46375 11.82179688 -48.1875 11.21484375 C-44.03876531 3.47690767 -36.2726792 -0.89119778 -28.17578125 -3.61328125 C-18.47864527 -5.33682966 -8.68189504 -4.77113151 0 0 Z " fill="#709348" transform="translate(1898,257)"/>
<path d="M0 0 C7.26 0 14.52 0 22 0 C22 48.51 22 97.02 22 147 C14.74 147 7.48 147 0 147 C0 98.49 0 49.98 0 0 Z " fill="#F6F6F5" transform="translate(2538,772)"/>
<path d="M0 0 C6.26918802 -0.23861961 11.73268948 0.56643884 17.8125 2.0625 C18.72902344 2.28728027 19.64554688 2.51206055 20.58984375 2.74365234 C43.24115205 8.50397988 64.65519443 18.41880933 83 33 C83.53496094 33.42216797 84.06992188 33.84433594 84.62109375 34.27929688 C104.05686208 49.77664212 120.07734813 68.14558627 132 90 C132.34901367 90.63760254 132.69802734 91.27520508 133.05761719 91.93212891 C140.15865908 105.08378207 145.02761984 118.66834655 148.75 133.125 C148.94875732 133.8871582 149.14751465 134.64931641 149.35229492 135.43457031 C152.66919519 148.96377003 153.37861421 162.39783535 153.3125 176.25 C153.30926727 177.4723938 153.30926727 177.4723938 153.30596924 178.71948242 C153.25514274 190.70278364 152.91811959 202.31965609 150 214 C149.70198486 215.22565674 149.70198486 215.22565674 149.39794922 216.47607422 C143.32224559 240.83805287 133.62943724 264.17942876 118 284 C118 279.92405803 120.01003719 277.45824192 122.125 274.125 C126.35209126 267.30060994 129.82521152 260.38293949 133 253 C133.66 253 134.32 253 135 253 C135.26393555 252.11731445 135.26393555 252.11731445 135.53320312 251.21679688 C136.91318308 246.60845649 138.30538961 242.00446772 139.71875 237.40625 C140.31299513 235.43764939 140.90674003 233.46889772 141.5 231.5 C141.79519531 230.55125 142.09039063 229.6025 142.39453125 228.625 C147.24443527 212.38743587 148.58157469 196.44041274 148.5 179.5625 C148.49856995 178.60321594 148.49713989 177.64393188 148.4956665 176.65557861 C148.41300511 154.17307935 146.30307848 130.08073392 135.82421875 109.71484375 C135 108 135 108 135 105 C134.34 105 133.68 105 133 105 C132.72849121 104.47680176 132.45698242 103.95360352 132.17724609 103.41455078 C122.52748536 84.8541773 112.44854425 68.2499317 98 53 C97.55962402 52.5270752 97.11924805 52.05415039 96.66552734 51.56689453 C88.71016924 43.06365438 80.12142508 36.10256109 70.25292969 29.90234375 C68.80408479 28.98228056 67.3974618 27.9963776 66 27 C66 26.34 66 25.68 66 25 C65.2575 24.72285156 64.515 24.44570313 63.75 24.16015625 C61.24565054 23.10363382 59.25368271 21.9356868 57 20.4375 C39.70181481 10.00245908 19.9082813 3.96434645 0 1 C0 0.67 0 0.34 0 0 Z " fill="#D8DCDC" transform="translate(1659,333)"/>
<path d="M0 0 C1.65 0 3.3 0 5 0 C5.33 1.32 5.66 2.64 6 4 C6.928125 3.34 7.85625 2.68 8.8125 2 C13.67654191 -0.76815393 18.54688287 -0.83767763 24 0 C27.26343469 1.38566473 29.49996026 3.49996026 32 6 C32.5775 5.38125 33.155 4.7625 33.75 4.125 C38.28771856 -0.16062309 42.15661275 -0.44241548 48.23828125 -0.3125 C52.51975951 0.17196713 54.60791337 1.31459808 58 4 C60.68002252 8.38164279 61.36318499 11.6085576 61.29296875 16.7109375 C61.2784668 18.57685547 61.2784668 18.57685547 61.26367188 20.48046875 C61.23853516 21.76566406 61.21339844 23.05085937 61.1875 24.375 C61.16719727 26.33759766 61.16719727 26.33759766 61.14648438 28.33984375 C61.1112237 31.56031844 61.06193633 34.77994606 61 38 C59.02 38 57.04 38 55 38 C54.97494385 37.20303711 54.9498877 36.40607422 54.92407227 35.58496094 C54.80801211 31.97314778 54.68533069 28.36158898 54.5625 24.75 C54.52318359 23.49574219 54.48386719 22.24148438 54.44335938 20.94921875 C54.40146484 19.74394531 54.35957031 18.53867187 54.31640625 17.296875 C54.26141968 15.63156738 54.26141968 15.63156738 54.20532227 13.93261719 C53.9794526 10.37874188 53.9794526 10.37874188 53 7 C47.98599222 5.32866407 43.01856696 5.2269318 38.0625 7.125 C34.05526684 10.76793924 33.86956299 15.45427085 33.5859375 20.6171875 C33.50673678 22.70280644 33.43666141 24.78878885 33.375 26.875 C33.33632812 27.94492188 33.29765625 29.01484375 33.2578125 30.1171875 C33.16397548 32.74462408 33.07828443 35.37206171 33 38 C31.35 38 29.7 38 28 38 C27.98018066 37.33991943 27.96036133 36.67983887 27.93994141 35.99975586 C27.84406648 32.97863636 27.73464247 29.95814992 27.625 26.9375 C27.5940625 25.89916016 27.563125 24.86082031 27.53125 23.79101562 C27.31957161 18.23445792 27.07242274 13.19515497 25 8 C20.94581842 5.29721228 17.75493686 5.47353072 13 6 C9.62390997 7.29297065 8.41743833 8.0903136 6.91015625 11.375 C5.61734532 16.52404954 5.5313739 21.58434965 5.375 26.875 C5.33632812 27.94492188 5.29765625 29.01484375 5.2578125 30.1171875 C5.16397548 32.74462408 5.07828443 35.37206171 5 38 C3.35 38 1.7 38 0 38 C0 25.46 0 12.92 0 0 Z " fill="#EDEEED" transform="translate(2339,999)"/>
<path d="M0 0 C1.65 0 3.3 0 5 0 C5.33 1.32 5.66 2.64 6 4 C6.928125 3.34 7.85625 2.68 8.8125 2 C13.67654191 -0.76815393 18.54688287 -0.83767763 24 0 C27.26343469 1.38566473 29.49996026 3.49996026 32 6 C32.5775 5.38125 33.155 4.7625 33.75 4.125 C38.28771856 -0.16062309 42.15661275 -0.44241548 48.23828125 -0.3125 C52.51975951 0.17196713 54.60791337 1.31459808 58 4 C60.68002252 8.38164279 61.36318499 11.6085576 61.29296875 16.7109375 C61.2784668 18.57685547 61.2784668 18.57685547 61.26367188 20.48046875 C61.23853516 21.76566406 61.21339844 23.05085937 61.1875 24.375 C61.16719727 26.33759766 61.16719727 26.33759766 61.14648438 28.33984375 C61.1112237 31.56031844 61.06193633 34.77994606 61 38 C59.02 38 57.04 38 55 38 C54.97494385 37.20303711 54.9498877 36.40607422 54.92407227 35.58496094 C54.80801211 31.97314778 54.68533069 28.36158898 54.5625 24.75 C54.52318359 23.49574219 54.48386719 22.24148438 54.44335938 20.94921875 C54.40146484 19.74394531 54.35957031 18.53867187 54.31640625 17.296875 C54.26141968 15.63156738 54.26141968 15.63156738 54.20532227 13.93261719 C53.9794526 10.37874188 53.9794526 10.37874188 53 7 C47.98599222 5.32866407 43.01856696 5.2269318 38.0625 7.125 C34.05526684 10.76793924 33.86956299 15.45427085 33.5859375 20.6171875 C33.50673678 22.70280644 33.43666141 24.78878885 33.375 26.875 C33.33632812 27.94492188 33.29765625 29.01484375 33.2578125 30.1171875 C33.16397548 32.74462408 33.07828443 35.37206171 33 38 C31.35 38 29.7 38 28 38 C27.98018066 37.33991943 27.96036133 36.67983887 27.93994141 35.99975586 C27.84406648 32.97863636 27.73464247 29.95814992 27.625 26.9375 C27.5940625 25.89916016 27.563125 24.86082031 27.53125 23.79101562 C27.31957161 18.23445792 27.07242274 13.19515497 25 8 C20.94581842 5.29721228 17.75493686 5.47353072 13 6 C9.62390997 7.29297065 8.41743833 8.0903136 6.91015625 11.375 C5.61734532 16.52404954 5.5313739 21.58434965 5.375 26.875 C5.33632812 27.94492188 5.29765625 29.01484375 5.2578125 30.1171875 C5.16397548 32.74462408 5.07828443 35.37206171 5 38 C3.35 38 1.7 38 0 38 C0 25.46 0 12.92 0 0 Z " fill="#EDEEED" transform="translate(2181,999)"/>
<path d="M0 0 C1.65 0 3.3 0 5 0 C5.33 1.32 5.66 2.64 6 4 C6.928125 3.34 7.85625 2.68 8.8125 2 C13.67654191 -0.76815393 18.54688287 -0.83767763 24 0 C27.26343469 1.38566473 29.49996026 3.49996026 32 6 C32.5775 5.38125 33.155 4.7625 33.75 4.125 C38.28771856 -0.16062309 42.15661275 -0.44241548 48.23828125 -0.3125 C52.51975951 0.17196713 54.60791337 1.31459808 58 4 C60.68002252 8.38164279 61.36318499 11.6085576 61.29296875 16.7109375 C61.2784668 18.57685547 61.2784668 18.57685547 61.26367188 20.48046875 C61.23853516 21.76566406 61.21339844 23.05085937 61.1875 24.375 C61.16719727 26.33759766 61.16719727 26.33759766 61.14648438 28.33984375 C61.1112237 31.56031844 61.06193633 34.77994606 61 38 C59.02 38 57.04 38 55 38 C54.97494385 37.20303711 54.9498877 36.40607422 54.92407227 35.58496094 C54.80801211 31.97314778 54.68533069 28.36158898 54.5625 24.75 C54.52318359 23.49574219 54.48386719 22.24148438 54.44335938 20.94921875 C54.40146484 19.74394531 54.35957031 18.53867187 54.31640625 17.296875 C54.26141968 15.63156738 54.26141968 15.63156738 54.20532227 13.93261719 C53.9794526 10.37874188 53.9794526 10.37874188 53 7 C47.98599222 5.32866407 43.01856696 5.2269318 38.0625 7.125 C34.05526684 10.76793924 33.86956299 15.45427085 33.5859375 20.6171875 C33.50673678 22.70280644 33.43666141 24.78878885 33.375 26.875 C33.33632812 27.94492188 33.29765625 29.01484375 33.2578125 30.1171875 C33.16397548 32.74462408 33.07828443 35.37206171 33 38 C31.35 38 29.7 38 28 38 C27.98018066 37.33991943 27.96036133 36.67983887 27.93994141 35.99975586 C27.84406648 32.97863636 27.73464247 29.95814992 27.625 26.9375 C27.5940625 25.89916016 27.563125 24.86082031 27.53125 23.79101562 C27.31957161 18.23445792 27.07242274 13.19515497 25 8 C20.94581842 5.29721228 17.75493686 5.47353072 13 6 C9.62390997 7.29297065 8.41743833 8.0903136 6.91015625 11.375 C5.61734532 16.52404954 5.5313739 21.58434965 5.375 26.875 C5.33632812 27.94492188 5.29765625 29.01484375 5.2578125 30.1171875 C5.16397548 32.74462408 5.07828443 35.37206171 5 38 C3.35 38 1.7 38 0 38 C0 25.46 0 12.92 0 0 Z " fill="#EDEEED" transform="translate(1810,999)"/>
<path d="M0 0 C1.65 0 3.3 0 5 0 C5.33 1.32 5.66 2.64 6 4 C6.928125 3.34 7.85625 2.68 8.8125 2 C13.67654191 -0.76815393 18.54688287 -0.83767763 24 0 C27.26343469 1.38566473 29.49996026 3.49996026 32 6 C32.5775 5.38125 33.155 4.7625 33.75 4.125 C38.28771856 -0.16062309 42.15661275 -0.44241548 48.23828125 -0.3125 C52.51975951 0.17196713 54.60791337 1.31459808 58 4 C60.68002252 8.38164279 61.36318499 11.6085576 61.29296875 16.7109375 C61.2784668 18.57685547 61.2784668 18.57685547 61.26367188 20.48046875 C61.23853516 21.76566406 61.21339844 23.05085937 61.1875 24.375 C61.16719727 26.33759766 61.16719727 26.33759766 61.14648438 28.33984375 C61.1112237 31.56031844 61.06193633 34.77994606 61 38 C59.02 38 57.04 38 55 38 C54.97494385 37.20303711 54.9498877 36.40607422 54.92407227 35.58496094 C54.80801211 31.97314778 54.68533069 28.36158898 54.5625 24.75 C54.52318359 23.49574219 54.48386719 22.24148438 54.44335938 20.94921875 C54.40146484 19.74394531 54.35957031 18.53867187 54.31640625 17.296875 C54.26141968 15.63156738 54.26141968 15.63156738 54.20532227 13.93261719 C53.9794526 10.37874188 53.9794526 10.37874188 53 7 C47.98599222 5.32866407 43.01856696 5.2269318 38.0625 7.125 C34.05526684 10.76793924 33.86956299 15.45427085 33.5859375 20.6171875 C33.50673678 22.70280644 33.43666141 24.78878885 33.375 26.875 C33.33632812 27.94492188 33.29765625 29.01484375 33.2578125 30.1171875 C33.16397548 32.74462408 33.07828443 35.37206171 33 38 C31.35 38 29.7 38 28 38 C27.98018066 37.33991943 27.96036133 36.67983887 27.93994141 35.99975586 C27.84406648 32.97863636 27.73464247 29.95814992 27.625 26.9375 C27.5940625 25.89916016 27.563125 24.86082031 27.53125 23.79101562 C27.31957161 18.23445792 27.07242274 13.19515497 25 8 C20.94581842 5.29721228 17.75493686 5.47353072 13 6 C9.62390997 7.29297065 8.41743833 8.0903136 6.91015625 11.375 C5.61734532 16.52404954 5.5313739 21.58434965 5.375 26.875 C5.33632812 27.94492188 5.29765625 29.01484375 5.2578125 30.1171875 C5.16397548 32.74462408 5.07828443 35.37206171 5 38 C3.35 38 1.7 38 0 38 C0 25.46 0 12.92 0 0 Z " fill="#EDEEED" transform="translate(1502,999)"/>
<path d="M0 0 C1.98 0 3.96 0 6 0 C6 17.49 6 34.98 6 53 C4.02 53 2.04 53 0 53 C-0.33 51.68 -0.66 50.36 -1 49 C-1.928125 49.66 -2.85625 50.32 -3.8125 51 C-8.70053888 53.79174578 -13.51981749 53.67155035 -19 53 C-24.20560436 51.26479855 -26.82045575 48.41603368 -30 44 C-32.49991408 38.69316484 -32.79307699 33.77813235 -32 28 C-29.92427818 22.83642755 -26.65396243 19.06181739 -22 16 C-19.0343745 15.01145817 -16.85514307 14.76989905 -13.75 14.6875 C-12.83734375 14.65011719 -11.9246875 14.61273437 -10.984375 14.57421875 C-8 15 -8 15 -1 19 C-0.67 12.73 -0.34 6.46 0 0 Z M-24.3125 24.5 C-27.22032904 28.80789488 -27.52930947 32.92825285 -27 38 C-25.2972384 42.66018963 -23.29749154 45.47755931 -19 48 C-14.53237966 49.20567943 -11.08964934 49.37006959 -6.6875 47.875 C-2.79315285 45.15801362 -0.50471001 42.51413003 1 38 C1.3684431 32.38124276 1.19190228 28.84288621 -2 24 C-5.51840149 20.17115133 -8.75704807 19.2450557 -13.7890625 18.90234375 C-18.50757376 19.11075856 -21.19683577 21.13171434 -24.3125 24.5 Z " fill="#EEEEED" transform="translate(1707,984)"/>
<path d="M0 0 C1.98 0 3.96 0 6 0 C6.01458252 0.95777344 6.02916504 1.91554688 6.04418945 2.90234375 C6.10258363 6.48848011 6.17980984 10.07401526 6.26245117 13.65966797 C6.29550862 15.20546643 6.32359903 16.75138004 6.34643555 18.29736328 C6.01233522 31.66380515 6.01233522 31.66380515 12 43 C17.5827495 44.8609165 23.50675199 44.98691067 29 42.8125 C32.5767793 39.57104376 33.891718 36.96976896 34.43237305 32.12768555 C34.47349789 30.63102789 34.49915812 29.13388862 34.51171875 27.63671875 C34.52966995 26.84473587 34.54762115 26.05275299 34.56611633 25.23677063 C34.62006838 22.72040038 34.65406563 20.20421815 34.6875 17.6875 C34.72068651 15.97588538 34.75517741 14.26429552 34.79101562 12.55273438 C34.87578582 8.36862558 34.94266843 4.18457107 35 0 C36.98 0 38.96 0 41 0 C41.07463717 4.83801979 41.12883014 9.67569804 41.16479492 14.51416016 C41.17980136 16.15712326 41.20021312 17.80004686 41.22631836 19.44287109 C41.26306359 21.81618042 41.27980772 24.18895625 41.29296875 26.5625 C41.30845261 27.28679199 41.32393646 28.01108398 41.33988953 28.75732422 C41.34170886 34.3786755 40.48349105 40.17160231 36.65397644 44.53295898 C30.61086849 49.83722563 25.00703325 50.46285491 17.23046875 50.3046875 C11.78304812 49.79090418 7.98457595 48.38248591 4.44140625 44.12890625 C0.36479003 38.01975616 -0.15146286 32.54909257 -0.09765625 25.29296875 C-0.0962413 24.56757401 -0.09482635 23.84217926 -0.09336853 23.09480286 C-0.08779931 20.7923255 -0.07525261 18.48994765 -0.0625 16.1875 C-0.05748102 14.62044412 -0.05291881 13.0533867 -0.04882812 11.48632812 C-0.03783998 7.65751411 -0.02059673 3.82877389 0 0 Z " fill="#E7E8E6" transform="translate(1944,987)"/>
<path d="M0 0 C28.35135135 0 28.35135135 0 34.8125 5.3125 C38.44362851 9.77360074 39.21376862 13.3510333 38.875 19 C38.2613047 23.59237156 37.22193092 26.53022824 34 30 C27.91541 34.26542839 22.23600349 34.50949806 15 34.25 C14.03449219 34.23195313 13.06898437 34.21390625 12.07421875 34.1953125 C9.71570963 34.14860935 7.3577183 34.07688212 5 34 C5 39.28 5 44.56 5 50 C3.35 50 1.7 50 0 50 C0 33.5 0 17 0 0 Z M5 5 C5 12.92 5 20.84 5 29 C8.17625 29.0825 11.3525 29.165 14.625 29.25 C16.1092749 29.30462402 16.1092749 29.30462402 17.62353516 29.36035156 C23.42835172 29.43310245 26.56166724 28.81241404 31 25 C33.34781141 22.01187638 33.41825081 18.78088812 33.3203125 15.03125 C32.78643864 11.64570842 31.19273902 9.55819552 29 7 C25.99609238 5.12235875 23.7490005 4.7596282 20.234375 4.8046875 C19.43225586 4.80968262 18.63013672 4.81467773 17.80371094 4.81982422 C16.79598633 4.83803223 15.78826172 4.85624023 14.75 4.875 C11.5325 4.91625 8.315 4.9575 5 5 Z " fill="#F3F3F2" transform="translate(1112,987)"/>
<path d="M0 0 C2.82341464 3.3413191 4.37288925 6.94089165 5.875 11 C6.1318457 11.69351563 6.38869141 12.38703125 6.65332031 13.1015625 C19.30859254 48.43021395 20.87263981 89.27346129 5 123.875 C4.00985703 125.92146517 3.01029812 127.96340959 2 130 C-4.01378414 142.4002535 -8.38386966 154.27530331 -4.9375 168.125 C-1.83694676 177.01795043 3.11841241 182.00687952 11.4375 186.0625 C13.61168577 187.07963892 15.79546987 188.04908617 18 189 C15.47381765 189.93283339 14.28850405 190.09862128 11.703125 189.21484375 C1.92221701 184.12191873 -6.48440179 179.08765588 -10 168 C-12.97668317 152.52124753 -8.82322268 140.68293317 -2 127 C-1.34 127 -0.68 127 0 127 C0.14695312 126.48695313 0.29390625 125.97390625 0.4453125 125.4453125 C1.66972048 121.26543698 2.93868002 117.12421171 4.4296875 113.03125 C16.86246562 78.50878749 14.1520934 39.57798738 0.91796875 5.6171875 C0 3 0 3 0 0 Z " fill="#ECEFE9" transform="translate(1794,187)"/>
<path d="M0 0 C3.37103444 3.28232301 5.21391751 5.78492996 5.71557617 10.54223633 C5.69986572 11.73099365 5.68415527 12.91975098 5.66796875 14.14453125 C5.65830078 15.43681641 5.64863281 16.72910156 5.63867188 18.06054688 C5.61360985 19.4153707 5.58821506 20.77018841 5.5625 22.125 C5.54744013 23.49933445 5.53375401 24.87368468 5.52148438 26.24804688 C5.48616628 29.60326632 5.43683851 32.95768166 5.375 36.3125 C3.725 36.3125 2.075 36.3125 0.375 36.3125 C0.045 34.9925 -0.285 33.6725 -0.625 32.3125 C-1.388125 32.9725 -2.15125 33.6325 -2.9375 34.3125 C-7.44783436 37.33012846 -12.40901686 36.97345664 -17.625 36.3125 C-21.32662323 34.77015699 -23.82001491 32.92247018 -25.625 29.3125 C-26.15562385 26.20456031 -26.23284376 23.41250319 -25.625 20.3125 C-23.44340855 17.55680553 -21.75322506 15.87661253 -18.625 14.3125 C-17.24951844 14.22941362 -15.87014204 14.20513984 -14.4921875 14.21484375 C-13.68652344 14.21806641 -12.88085938 14.22128906 -12.05078125 14.22460938 C-11.20902344 14.23298828 -10.36726563 14.24136719 -9.5 14.25 C-8.22576172 14.25676758 -8.22576172 14.25676758 -6.92578125 14.26367188 C-4.82549091 14.27547126 -2.7252367 14.29340694 -0.625 14.3125 C-0.88171691 9.41193213 -0.88171691 9.41193213 -3.38671875 5.3984375 C-7.88072216 3.21810077 -13.11528794 3.53959753 -17.83203125 4.9921875 C-19.46405129 5.69020014 -21.05129041 6.49143412 -22.625 7.3125 C-24.625 5.3125 -24.625 5.3125 -24.6875 3.375 C-23.33218015 0.744085 -21.72187883 -0.12013961 -18.98828125 -1.14453125 C-12.56799285 -2.61960577 -6.00001068 -2.79310842 0 0 Z M-19.625 20.3125 C-21.03941874 23.14133747 -20.94400332 25.18626745 -20.625 28.3125 C-17.75467172 31.11074241 -15.64567453 31.72409329 -11.6875 31.6875 C-7.55500897 31.559691 -4.87187926 31.05205438 -1.625 28.3125 C0.8044516 24.6683226 0.53679575 22.60008728 0.375 18.3125 C-2.02114126 18.25824774 -4.41603853 18.21870973 -6.8125 18.1875 C-7.48603516 18.17074219 -8.15957031 18.15398438 -8.85351562 18.13671875 C-12.89248978 18.09731412 -16.04359848 18.38353421 -19.625 20.3125 Z " fill="#EDEEED" transform="translate(1203.625,1000.6875)"/>
<path d="M0 0 C3.37103444 3.28232301 5.21391751 5.78492996 5.71557617 10.54223633 C5.69986572 11.73099365 5.68415527 12.91975098 5.66796875 14.14453125 C5.65830078 15.43681641 5.64863281 16.72910156 5.63867188 18.06054688 C5.61360985 19.4153707 5.58821506 20.77018841 5.5625 22.125 C5.54744013 23.49933445 5.53375401 24.87368468 5.52148438 26.24804688 C5.48616628 29.60326632 5.43683851 32.95768166 5.375 36.3125 C3.725 36.3125 2.075 36.3125 0.375 36.3125 C0.045 34.9925 -0.285 33.6725 -0.625 32.3125 C-1.388125 32.9725 -2.15125 33.6325 -2.9375 34.3125 C-7.44783436 37.33012846 -12.40901686 36.97345664 -17.625 36.3125 C-21.32662323 34.77015699 -23.82001491 32.92247018 -25.625 29.3125 C-26.15562385 26.20456031 -26.23284376 23.41250319 -25.625 20.3125 C-23.44340855 17.55680553 -21.75322506 15.87661253 -18.625 14.3125 C-17.24951844 14.22941362 -15.87014204 14.20513984 -14.4921875 14.21484375 C-13.68652344 14.21806641 -12.88085938 14.22128906 -12.05078125 14.22460938 C-11.20902344 14.23298828 -10.36726563 14.24136719 -9.5 14.25 C-8.22576172 14.25676758 -8.22576172 14.25676758 -6.92578125 14.26367188 C-4.82549091 14.27547126 -2.7252367 14.29340694 -0.625 14.3125 C-0.88171691 9.41193213 -0.88171691 9.41193213 -3.38671875 5.3984375 C-7.88072216 3.21810077 -13.11528794 3.53959753 -17.83203125 4.9921875 C-19.46405129 5.69020014 -21.05129041 6.49143412 -22.625 7.3125 C-24.625 5.3125 -24.625 5.3125 -24.6875 3.375 C-23.33218015 0.744085 -21.72187883 -0.12013961 -18.98828125 -1.14453125 C-12.56799285 -2.61960577 -6.00001068 -2.79310842 0 0 Z M-20.625 21.3125 C-21.27346439 25.92680652 -21.27346439 25.92680652 -19.3671875 29.9765625 C-16.18833891 32.41415492 -12.5282915 32.42592898 -8.625 32.3125 C-4.50378651 30.8624434 -1.60953875 29.28157751 0.375 25.3125 C0.42005598 22.97960172 0.42382652 20.64532241 0.375 18.3125 C-2.37559381 18.23142354 -5.12379021 18.17197187 -7.875 18.125 C-9.04095703 18.08729492 -9.04095703 18.08729492 -10.23046875 18.04882812 C-16.0683436 17.92169833 -16.0683436 17.92169833 -20.625 21.3125 Z " fill="#EFF0EF" transform="translate(1462.625,1000.6875)"/>
<path d="M0 0 C3.37103444 3.28232301 5.21391751 5.78492996 5.71557617 10.54223633 C5.69986572 11.73099365 5.68415527 12.91975098 5.66796875 14.14453125 C5.65830078 15.43681641 5.64863281 16.72910156 5.63867188 18.06054688 C5.61360985 19.4153707 5.58821506 20.77018841 5.5625 22.125 C5.54744013 23.49933445 5.53375401 24.87368468 5.52148438 26.24804688 C5.48616628 29.60326632 5.43683851 32.95768166 5.375 36.3125 C3.725 36.3125 2.075 36.3125 0.375 36.3125 C0.045 34.9925 -0.285 33.6725 -0.625 32.3125 C-1.388125 32.9725 -2.15125 33.6325 -2.9375 34.3125 C-7.44783436 37.33012846 -12.40901686 36.97345664 -17.625 36.3125 C-21.32662323 34.77015699 -23.82001491 32.92247018 -25.625 29.3125 C-26.15562385 26.20456031 -26.23284376 23.41250319 -25.625 20.3125 C-23.44340855 17.55680553 -21.75322506 15.87661253 -18.625 14.3125 C-17.24951844 14.22941362 -15.87014204 14.20513984 -14.4921875 14.21484375 C-13.68652344 14.21806641 -12.88085938 14.22128906 -12.05078125 14.22460938 C-11.20902344 14.23298828 -10.36726563 14.24136719 -9.5 14.25 C-8.22576172 14.25676758 -8.22576172 14.25676758 -6.92578125 14.26367188 C-4.82549091 14.27547126 -2.7252367 14.29340694 -0.625 14.3125 C-0.88171691 9.41193213 -0.88171691 9.41193213 -3.38671875 5.3984375 C-7.88072216 3.21810077 -13.11528794 3.53959753 -17.83203125 4.9921875 C-19.46405129 5.69020014 -21.05129041 6.49143412 -22.625 7.3125 C-24.625 5.3125 -24.625 5.3125 -24.6875 3.375 C-23.33218015 0.744085 -21.72187883 -0.12013961 -18.98828125 -1.14453125 C-12.56799285 -2.61960577 -6.00001068 -2.79310842 0 0 Z M-20.625 21.3125 C-21.71068503 23.15517868 -21.71068503 23.15517868 -21.625 25.3125 C-19.92506648 29.07024779 -18.4445265 30.82329833 -14.625 32.3125 C-10.04289703 32.55840892 -6.48355895 31.86698599 -2.625 29.375 C0.1642069 26.49863038 0.3665643 25.80177077 0.4375 21.6875 C0.416875 20.57375 0.39625 19.46 0.375 18.3125 C-2.37559381 18.23142354 -5.12379021 18.17197187 -7.875 18.125 C-9.04095703 18.08729492 -9.04095703 18.08729492 -10.23046875 18.04882812 C-16.02277259 17.96904896 -16.02277259 17.96904896 -20.625 21.3125 Z " fill="#EFF0EF" transform="translate(2298.625,1000.6875)"/>
<path d="M0 0 C3.37103444 3.28232301 5.21391751 5.78492996 5.71557617 10.54223633 C5.69986572 11.73099365 5.68415527 12.91975098 5.66796875 14.14453125 C5.65830078 15.43681641 5.64863281 16.72910156 5.63867188 18.06054688 C5.61360985 19.4153707 5.58821506 20.77018841 5.5625 22.125 C5.54744013 23.49933445 5.53375401 24.87368468 5.52148438 26.24804688 C5.48616628 29.60326632 5.43683851 32.95768166 5.375 36.3125 C3.725 36.3125 2.075 36.3125 0.375 36.3125 C0.045 34.9925 -0.285 33.6725 -0.625 32.3125 C-1.388125 32.9725 -2.15125 33.6325 -2.9375 34.3125 C-7.44783436 37.33012846 -12.40901686 36.97345664 -17.625 36.3125 C-21.32662323 34.77015699 -23.82001491 32.92247018 -25.625 29.3125 C-26.15562385 26.20456031 -26.23284376 23.41250319 -25.625 20.3125 C-23.44340855 17.55680553 -21.75322506 15.87661253 -18.625 14.3125 C-17.24951844 14.22941362 -15.87014204 14.20513984 -14.4921875 14.21484375 C-13.68652344 14.21806641 -12.88085938 14.22128906 -12.05078125 14.22460938 C-11.20902344 14.23298828 -10.36726563 14.24136719 -9.5 14.25 C-8.22576172 14.25676758 -8.22576172 14.25676758 -6.92578125 14.26367188 C-4.82549091 14.27547126 -2.7252367 14.29340694 -0.625 14.3125 C-0.88171691 9.41193213 -0.88171691 9.41193213 -3.38671875 5.3984375 C-7.88072216 3.21810077 -13.11528794 3.53959753 -17.83203125 4.9921875 C-19.46405129 5.69020014 -21.05129041 6.49143412 -22.625 7.3125 C-24.625 5.3125 -24.625 5.3125 -24.6875 3.375 C-23.33218015 0.744085 -21.72187883 -0.12013961 -18.98828125 -1.14453125 C-12.56799285 -2.61960577 -6.00001068 -2.79310842 0 0 Z M-20.625 21.3125 C-21.71068503 23.15517868 -21.71068503 23.15517868 -21.625 25.3125 C-19.92506648 29.07024779 -18.4445265 30.82329833 -14.625 32.3125 C-10.04289703 32.55840892 -6.48355895 31.86698599 -2.625 29.375 C0.1642069 26.49863038 0.3665643 25.80177077 0.4375 21.6875 C0.416875 20.57375 0.39625 19.46 0.375 18.3125 C-2.37559381 18.23142354 -5.12379021 18.17197187 -7.875 18.125 C-9.04095703 18.08729492 -9.04095703 18.08729492 -10.23046875 18.04882812 C-16.02277259 17.96904896 -16.02277259 17.96904896 -20.625 21.3125 Z " fill="#EFF0EF" transform="translate(2141.625,1000.6875)"/>
<path d="M0 0 C3.37103444 3.28232301 5.21391751 5.78492996 5.71557617 10.54223633 C5.69986572 11.73099365 5.68415527 12.91975098 5.66796875 14.14453125 C5.65830078 15.43681641 5.64863281 16.72910156 5.63867188 18.06054688 C5.61360985 19.4153707 5.58821506 20.77018841 5.5625 22.125 C5.54744013 23.49933445 5.53375401 24.87368468 5.52148438 26.24804688 C5.48616628 29.60326632 5.43683851 32.95768166 5.375 36.3125 C3.725 36.3125 2.075 36.3125 0.375 36.3125 C0.045 34.9925 -0.285 33.6725 -0.625 32.3125 C-1.388125 32.9725 -2.15125 33.6325 -2.9375 34.3125 C-7.44783436 37.33012846 -12.40901686 36.97345664 -17.625 36.3125 C-21.32662323 34.77015699 -23.82001491 32.92247018 -25.625 29.3125 C-26.15562385 26.20456031 -26.23284376 23.41250319 -25.625 20.3125 C-23.44340855 17.55680553 -21.75322506 15.87661253 -18.625 14.3125 C-17.24951844 14.22941362 -15.87014204 14.20513984 -14.4921875 14.21484375 C-13.68652344 14.21806641 -12.88085938 14.22128906 -12.05078125 14.22460938 C-11.20902344 14.23298828 -10.36726563 14.24136719 -9.5 14.25 C-8.22576172 14.25676758 -8.22576172 14.25676758 -6.92578125 14.26367188 C-4.82549091 14.27547126 -2.7252367 14.29340694 -0.625 14.3125 C-0.88171691 9.41193213 -0.88171691 9.41193213 -3.38671875 5.3984375 C-7.88072216 3.21810077 -13.11528794 3.53959753 -17.83203125 4.9921875 C-19.46405129 5.69020014 -21.05129041 6.49143412 -22.625 7.3125 C-24.625 5.3125 -24.625 5.3125 -24.6875 3.375 C-23.33218015 0.744085 -21.72187883 -0.12013961 -18.98828125 -1.14453125 C-12.56799285 -2.61960577 -6.00001068 -2.79310842 0 0 Z M-20.625 21.3125 C-21.71068503 23.15517868 -21.71068503 23.15517868 -21.625 25.3125 C-19.92506648 29.07024779 -18.4445265 30.82329833 -14.625 32.3125 C-10.04289703 32.55840892 -6.48355895 31.86698599 -2.625 29.375 C0.1642069 26.49863038 0.3665643 25.80177077 0.4375 21.6875 C0.416875 20.57375 0.39625 19.46 0.375 18.3125 C-2.37559381 18.23142354 -5.12379021 18.17197187 -7.875 18.125 C-9.04095703 18.08729492 -9.04095703 18.08729492 -10.23046875 18.04882812 C-16.02277259 17.96904896 -16.02277259 17.96904896 -20.625 21.3125 Z " fill="#EFF0EF" transform="translate(1769.625,1000.6875)"/>
<path d="M0 0 C12.13127336 -0.58230112 21.38172976 0.43024289 31.1171875 8.234375 C38.66784346 15.31507312 43.31941968 23.31278949 44.23828125 33.69140625 C44.51559794 44.41918336 42.07432439 53.66071316 35.0625 61.95703125 C30.15296619 66.82007326 24.96455822 71.00860381 18 72 C18.680625 71.484375 19.36125 70.96875 20.0625 70.4375 C23.08595299 67.9286773 25.75062687 65.23880623 28.44921875 62.390625 C30 61 30 61 32 61 C37.48593343 47.91815873 39.26373213 37.86174385 35 24 C34.11738844 21.88252385 33.13401587 19.99802797 32 18 C32 17.34 32 16.68 32 16 C31.443125 15.773125 30.88625 15.54625 30.3125 15.3125 C28 14 28 14 25.8125 11.6875 C19.77745139 5.92067577 13.12651451 3.35179932 5 2 C3.989375 1.79375 2.97875 1.5875 1.9375 1.375 C1.298125 1.25125 0.65875 1.1275 0 1 C0 0.67 0 0.34 0 0 Z " fill="#E7EAEC" transform="translate(1653,446)"/>
<path d="M0 0 C1.98 0 3.96 0 6 0 C10.29 9.9 14.58 19.8 19 30 C21.9390625 23.4103125 21.9390625 23.4103125 24.9375 16.6875 C25.55488037 15.30522217 26.17226074 13.92294434 26.80834961 12.4987793 C27.29311768 11.40992432 27.77788574 10.32106934 28.27734375 9.19921875 C29.02359009 7.52605591 29.02359009 7.52605591 29.78491211 5.8190918 C31.04682185 3.0013775 31.04682185 3.0013775 32 0 C33.98 0 35.96 0 38 0 C35.46523288 8.33636407 31.91300395 16.14914474 28.3125 24.0625 C27.69946644 25.4184375 27.08683305 26.774556 26.47460938 28.13085938 C24.98767883 31.42267158 23.49535452 34.71200441 22 38 C20.02 38 18.04 38 16 38 C11.84570427 29.30403049 7.87801964 20.53771289 4.0625 11.6875 C3.6610376 10.76235596 3.2595752 9.83721191 2.84594727 8.8840332 C2.47526123 8.01866943 2.1045752 7.15330566 1.72265625 6.26171875 C1.22390991 5.10095825 1.22390991 5.10095825 0.71508789 3.91674805 C0 2 0 2 0 0 Z " fill="#EAEBEA" transform="translate(1236,999)"/>
<path d="M0 0 C1.2065625 0.0309375 1.2065625 0.0309375 2.4375 0.0625 C2.4375 3.0325 2.4375 6.0025 2.4375 9.0625 C6.0675 9.0625 9.6975 9.0625 13.4375 9.0625 C13.4375 10.7125 13.4375 12.3625 13.4375 14.0625 C9.8075 14.0625 6.1775 14.0625 2.4375 14.0625 C2.55093964 18.18812069 2.67769838 22.31257045 2.8125 26.4375 C2.8434375 27.613125 2.874375 28.78875 2.90625 30 C2.94492188 31.12148438 2.98359375 32.24296875 3.0234375 33.3984375 C3.0548584 34.43532715 3.0862793 35.4722168 3.11865234 36.54052734 C3.19704472 39.23059835 3.19704472 39.23059835 5.4375 41.0625 C7.64822977 41.30503813 7.64822977 41.30503813 10.0625 41.1875 C10.87976562 41.16945313 11.69703125 41.15140625 12.5390625 41.1328125 C13.16554688 41.10960937 13.79203125 41.08640625 14.4375 41.0625 C15.0975 42.3825 15.7575 43.7025 16.4375 45.0625 C13.48247399 46.75492399 11.33754978 47.33578801 7.9375 47.3125 C7.1846875 47.31765625 6.431875 47.3228125 5.65625 47.328125 C3.13921836 47.02679023 1.57360808 46.42019582 -0.5625 45.0625 C-3.50812486 40.64406271 -3.68932559 36.76428067 -3.66015625 31.54296875 C-3.65693359 30.52138672 -3.65371094 29.49980469 -3.65039062 28.44726562 C-3.64201172 27.39216797 -3.63363281 26.33707031 -3.625 25.25 C-3.62048828 24.17556641 -3.61597656 23.10113281 -3.61132812 21.99414062 C-3.59957729 19.35020317 -3.58314787 16.70638048 -3.5625 14.0625 C-5.5425 14.0625 -7.5225 14.0625 -9.5625 14.0625 C-9.5625 12.4125 -9.5625 10.7625 -9.5625 9.0625 C-7.5825 9.0625 -5.6025 9.0625 -3.5625 9.0625 C-3.583125 7.763125 -3.60375 6.46375 -3.625 5.125 C-3.64649454 3.77084367 -3.63398199 2.41493917 -3.5625 1.0625 C-2.5625 0.0625 -2.5625 0.0625 0 0 Z " fill="#E6E7E6" transform="translate(2072.5625,989.9375)"/>
<path d="M0 0 C1.2065625 0.0309375 1.2065625 0.0309375 2.4375 0.0625 C2.4375 3.0325 2.4375 6.0025 2.4375 9.0625 C6.0675 9.0625 9.6975 9.0625 13.4375 9.0625 C13.4375 10.7125 13.4375 12.3625 13.4375 14.0625 C9.8075 14.0625 6.1775 14.0625 2.4375 14.0625 C2.55093964 18.18812069 2.67769838 22.31257045 2.8125 26.4375 C2.8434375 27.613125 2.874375 28.78875 2.90625 30 C2.94492188 31.12148438 2.98359375 32.24296875 3.0234375 33.3984375 C3.0548584 34.43532715 3.0862793 35.4722168 3.11865234 36.54052734 C3.19704472 39.23059835 3.19704472 39.23059835 5.4375 41.0625 C7.64822977 41.30503813 7.64822977 41.30503813 10.0625 41.1875 C10.87976562 41.16945313 11.69703125 41.15140625 12.5390625 41.1328125 C13.16554688 41.10960937 13.79203125 41.08640625 14.4375 41.0625 C15.0975 42.3825 15.7575 43.7025 16.4375 45.0625 C13.48247399 46.75492399 11.33754978 47.33578801 7.9375 47.3125 C7.1846875 47.31765625 6.431875 47.3228125 5.65625 47.328125 C3.13921836 47.02679023 1.57360808 46.42019582 -0.5625 45.0625 C-3.50812486 40.64406271 -3.68932559 36.76428067 -3.66015625 31.54296875 C-3.65693359 30.52138672 -3.65371094 29.49980469 -3.65039062 28.44726562 C-3.64201172 27.39216797 -3.63363281 26.33707031 -3.625 25.25 C-3.62048828 24.17556641 -3.61597656 23.10113281 -3.61132812 21.99414062 C-3.59957729 19.35020317 -3.58314787 16.70638048 -3.5625 14.0625 C-5.5425 14.0625 -7.5225 14.0625 -9.5625 14.0625 C-9.5625 12.4125 -9.5625 10.7625 -9.5625 9.0625 C-7.5825 9.0625 -5.6025 9.0625 -3.5625 9.0625 C-3.583125 7.763125 -3.60375 6.46375 -3.625 5.125 C-3.64649454 3.77084367 -3.63398199 2.41493917 -3.5625 1.0625 C-2.5625 0.0625 -2.5625 0.0625 0 0 Z " fill="#E6E7E6" transform="translate(2024.5625,989.9375)"/>
<path d="M0 0 C1.2065625 0.0309375 1.2065625 0.0309375 2.4375 0.0625 C2.4375 3.0325 2.4375 6.0025 2.4375 9.0625 C6.0675 9.0625 9.6975 9.0625 13.4375 9.0625 C13.4375 10.7125 13.4375 12.3625 13.4375 14.0625 C9.8075 14.0625 6.1775 14.0625 2.4375 14.0625 C2.55093964 18.18812069 2.67769838 22.31257045 2.8125 26.4375 C2.8434375 27.613125 2.874375 28.78875 2.90625 30 C2.94492188 31.12148438 2.98359375 32.24296875 3.0234375 33.3984375 C3.0548584 34.43532715 3.0862793 35.4722168 3.11865234 36.54052734 C3.19704472 39.23059835 3.19704472 39.23059835 5.4375 41.0625 C7.64822977 41.30503813 7.64822977 41.30503813 10.0625 41.1875 C10.87976562 41.16945313 11.69703125 41.15140625 12.5390625 41.1328125 C13.16554688 41.10960937 13.79203125 41.08640625 14.4375 41.0625 C15.0975 42.3825 15.7575 43.7025 16.4375 45.0625 C13.48247399 46.75492399 11.33754978 47.33578801 7.9375 47.3125 C7.1846875 47.31765625 6.431875 47.3228125 5.65625 47.328125 C3.13921836 47.02679023 1.57360808 46.42019582 -0.5625 45.0625 C-3.50812486 40.64406271 -3.68932559 36.76428067 -3.66015625 31.54296875 C-3.65693359 30.52138672 -3.65371094 29.49980469 -3.65039062 28.44726562 C-3.64201172 27.39216797 -3.63363281 26.33707031 -3.625 25.25 C-3.62048828 24.17556641 -3.61597656 23.10113281 -3.61132812 21.99414062 C-3.59957729 19.35020317 -3.58314787 16.70638048 -3.5625 14.0625 C-5.5425 14.0625 -7.5225 14.0625 -9.5625 14.0625 C-9.5625 12.4125 -9.5625 10.7625 -9.5625 9.0625 C-7.5825 9.0625 -5.6025 9.0625 -3.5625 9.0625 C-3.583125 7.763125 -3.60375 6.46375 -3.625 5.125 C-3.64649454 3.77084367 -3.63398199 2.41493917 -3.5625 1.0625 C-2.5625 0.0625 -2.5625 0.0625 0 0 Z " fill="#E6E7E6" transform="translate(1345.5625,989.9375)"/>
<path d="M0 0 C1.65 0 3.3 0 5 0 C5.33 1.32 5.66 2.64 6 4 C6.474375 3.525625 6.94875 3.05125 7.4375 2.5625 C11.11644797 0.31923904 14.7621112 0.26260422 19 0 C19 1.65 19 3.3 19 5 C17.14375 5.37125 17.14375 5.37125 15.25 5.75 C11.47719939 6.69820829 9.36579703 7.78251605 7 11 C5.990273 14.13454754 5.81111783 17.14268432 5.68359375 20.421875 C5.64169922 21.44667969 5.59980469 22.47148438 5.55664062 23.52734375 C5.51732422 24.59082031 5.47800781 25.65429688 5.4375 26.75 C5.37272461 28.36841797 5.37272461 28.36841797 5.30664062 30.01953125 C5.20071011 32.67956428 5.09863579 35.33968812 5 38 C3.35 38 1.7 38 0 38 C0 25.46 0 12.92 0 0 Z " fill="#F2F2F2" transform="translate(1391,999)"/>
<path d="M0 0 C1.65 0 3.3 0 5 0 C5 16.5 5 33 5 50 C3.35 50 1.7 50 0 50 C0 33.5 0 17 0 0 Z " fill="#FFFFFF" transform="translate(1638,987)"/>
<path d="M0 0 C1.65 0 3.3 0 5 0 C5 12.54 5 25.08 5 38 C3.35 38 1.7 38 0 38 C0 25.46 0 12.92 0 0 Z " fill="#F9F9F9" transform="translate(1302,999)"/>
<path d="M0 0 C6.26918802 -0.23861961 11.73268948 0.56643884 17.8125 2.0625 C18.72902344 2.28728027 19.64554688 2.51206055 20.58984375 2.74365234 C37.48922511 7.04123951 54.29549856 13.48520121 69 23 C69.495 23.99 69.495 23.99 70 25 C64.92437346 25.41113322 62.57414239 24.44970754 58.4375 21.5625 C41.01866324 10.19290418 20.45830598 4.04624522 0 1 C0 0.67 0 0.34 0 0 Z " fill="#B9BFBF" transform="translate(1659,333)"/>
<path d="M0 0 C-3.43544746 1.87465158 -6.96203301 3.00743316 -10.6875 4.1875 C-17.30605166 6.32535804 -23.70974081 8.84682272 -30.1003418 11.58862305 C-36.74909747 14.41472503 -42.67297061 16.29906242 -50 16 C-46.4473444 12.87292294 -42.41509396 11.58435806 -38 10.125 C-32.74292288 8.33902794 -27.59477728 6.46911691 -22.5 4.25 C-14.91400355 1.02698785 -8.22430215 -0.29906553 0 0 Z " fill="#CDD3D5" transform="translate(1718,394)"/>
<path d="M0 0 C3.41468551 5.12202826 2.50322151 11.0242446 2 17 C-0.32892038 27.45367671 -6.29070896 35.84689501 -15 42 C-21.69808239 45.93339547 -26.96897496 47.15810806 -34.75 47.0625 C-35.44738281 47.05798828 -36.14476562 47.05347656 -36.86328125 47.04882812 C-38.57555803 47.0371002 -40.28779033 47.01916653 -42 47 C-42 46.67 -42 46.34 -42 46 C-40.53240234 45.85304688 -40.53240234 45.85304688 -39.03515625 45.703125 C-31.42778615 44.83542104 -24.7470151 43.8117979 -18 40 C-16.95585938 39.46052734 -16.95585938 39.46052734 -15.890625 38.91015625 C-8.70606617 34.89922773 -3.89932368 28.81429635 -1.5234375 20.91796875 C-0.28864653 14.03446986 -0.21825883 6.97675634 0 0 Z " fill="#CAD2C2" transform="translate(1917,282)"/>
<path d="M0 0 C2.82349547 3.34141476 4.37248891 6.94096252 5.875 11 C6.13112061 11.68989014 6.38724121 12.37978027 6.65112305 13.09057617 C10.98656879 25.17276833 14.67467135 38.10515536 15 51 C14.67 51 14.34 51 14 51 C13.67 52.98 13.34 54.96 13 57 C12.67 57 12.34 57 12 57 C11.91363281 55.87207031 11.82726563 54.74414062 11.73828125 53.58203125 C10.32047774 37.03624647 6.95512774 21.10946626 0.91796875 5.6171875 C0 3 0 3 0 0 Z " fill="#DEE4D9" transform="translate(1794,187)"/>
<path d="M0 0 C0.66 0.66 1.32 1.32 2 2 C1.64485154 8.52530762 -1.3700842 14.7792682 -4.0625 20.625 C-4.65478394 21.9238916 -4.65478394 21.9238916 -5.2590332 23.24902344 C-10.37012139 34.23012204 -16.44642409 44.50960975 -24 54 C-24 49.92405803 -21.98996281 47.45824192 -19.875 44.125 C-15.64790874 37.30060994 -12.17478848 30.38293949 -9 23 C-8.34 23 -7.68 23 -7 23 C-6.82984375 22.42894531 -6.6596875 21.85789062 -6.484375 21.26953125 C-4.36171606 14.1676564 -2.18686668 7.08233982 0 0 Z " fill="#D0D3D8" transform="translate(1801,563)"/>
<path d="M0 0 C0.33 0 0.66 0 1 0 C1.8006296 9.92780706 -1.13563705 18.60898147 -4 28 C-4.66 28 -5.32 28 -6 28 C-5.58516138 21.46629168 -4.49638554 15.29580487 -3 8.9375 C-2.82178711 8.1751001 -2.64357422 7.4127002 -2.45996094 6.62719727 C-1.1323019 1.1323019 -1.1323019 1.1323019 0 0 Z " fill="#DFE2E5" transform="translate(1808,537)"/>
<path d="M0 0 C6.39161842 -0.25952047 11.93288898 0.64614294 18.125 2.1875 C19.03918701 2.40946045 19.95337402 2.6314209 20.89526367 2.86010742 C28.46610934 4.75132315 35.74326915 7.13389622 43 10 C42.01 10.66 41.02 11.32 40 12 C37.34765625 11.27734375 37.34765625 11.27734375 34.0625 9.9375 C27.97436392 7.57390937 21.84037769 5.80907114 15.5 4.25 C14.22781616 3.93470337 14.22781616 3.93470337 12.92993164 3.61303711 C8.63814304 2.57127471 4.37187029 1.65294167 0 1 C0 0.67 0 0.34 0 0 Z " fill="#98A4AD" transform="translate(1659,333)"/>
<path d="M0 0 C2.5625 -0.25 2.5625 -0.25 5 0 C6 1 6 1 6.125 3.5 C6 6 6 6 5 7 C3.33382885 7.04063832 1.66611905 7.042721 0 7 C-0.66 5.68 -1.32 4.36 -2 3 C-1.34 2.01 -0.68 1.02 0 0 Z " fill="#EAEBE9" transform="translate(1302,984)"/>
<path d="M0 0 C0.66 0.66 1.32 1.32 2 2 C1.7478343 8.88264017 -1.77178193 15.0980288 -5 21 C-6.33201473 18.33597054 -5.69751146 17.4413616 -4.78515625 14.6484375 C-4.51123047 13.79765625 -4.23730469 12.946875 -3.95507812 12.0703125 C-3.66052734 11.18085937 -3.36597656 10.29140625 -3.0625 9.375 C-2.77181641 8.4778125 -2.48113281 7.580625 -2.18164062 6.65625 C-1.46100166 4.43526435 -0.73354395 2.21675021 0 0 Z " fill="#D4D7DD" transform="translate(1801,563)"/>
<path d="M0 0 C-3.31016094 1.84790538 -6.57173491 2.74541487 -10.25 3.625 C-11.86648438 4.01558594 -11.86648438 4.01558594 -13.515625 4.4140625 C-14.33546875 4.60742188 -15.1553125 4.80078125 -16 5 C-16.33 4.01 -16.66 3.02 -17 2 C-11.19233704 0.4943096 -6.0018137 -0.21824777 0 0 Z " fill="#9BACBB" transform="translate(1718,394)"/>
<path d="M0 0 C0.66 0.66 1.32 1.32 2 2 C1.9765625 4.8203125 1.9765625 4.8203125 1.625 8.125 C1.51414062 9.22070312 1.40328125 10.31640625 1.2890625 11.4453125 C1.19367188 12.28835938 1.09828125 13.13140625 1 14 C0.67 14 0.34 14 0 14 C-0.144375 13.2575 -0.28875 12.515 -0.4375 11.75 C-0.91855534 9.09708653 -0.91855534 9.09708653 -1.6875 7 C-2.12029274 4.23012648 -1.17531853 2.48890983 0 0 Z " fill="#CDD1CF" transform="translate(1809,529)"/>
<path d="M0 0 C0.33 3.63 0.66 7.26 1 11 C0.67 11 0.34 11 0 11 C-0.33 12.98 -0.66 14.96 -1 17 C-1.33 17 -1.66 17 -2 17 C-2.33 11.72 -2.66 6.44 -3 1 C-1 0 -1 0 0 0 Z " fill="#CED6C5" transform="translate(1808,227)"/>
<path d="M0 0 C-3.01887244 3.48331435 -5.56909529 4.79157144 -10 6 C-10 4.68 -10 3.36 -10 2 C-6.49223216 0.39644899 -3.85645121 -0.22036864 0 0 Z " fill="#C0C6C7" transform="translate(1703,397)"/>
<path d="M0 0 C0.66 0 1.32 0 2 0 C0.68938409 4.23429756 -0.94356259 8.07407404 -3 12 C-3.66 11.01 -4.32 10.02 -5 9 C-3.625 5.3125 -3.625 5.3125 -2 2 C-1.34 2 -0.68 2 0 2 C0 1.34 0 0.68 0 0 Z " fill="#C6CBD0" transform="translate(1794,584)"/>
<path d="M0 0 C0 3 0 3 -1.35546875 4.5703125 C-7.42718924 9.72285995 -7.42718924 9.72285995 -12 10 C-8.97151861 6.7385585 -5.71931092 4.42563756 -2 2 C-1.34 1.34 -0.68 0.68 0 0 Z " fill="#E3E6DF" transform="translate(1909,315)"/>
<path d="M0 0 C0.66 0 1.32 0 2 0 C3.17571451 3.67410785 3.07366746 7.16929183 3 11 C1 10 1 10 0 7 C-0.03954234 4.66700175 -0.04401732 2.33291811 0 0 Z " fill="#E5E8E2" transform="translate(1804,218)"/>
</svg>
